<?xml version="1.0" standalone="no"?>
<!DOCTYPE svg PUBLIC "-//W3C//DTD SVG 1.1//EN"
"http://www.w3.org/Graphics/SVG/1.1/DTD/svg11.dtd">
<!-- Creator: fig2dev Version 3.2 Patchlevel 5 -->
<!-- CreationDate: Sun Nov  4 11:28:56 2007 -->
<!-- Magnification: 1.050 -->
<svg xmlns="http://www.w3.org/2000/svg" width="5.1in" height="1.4in" viewBox="1499 2827 6072 1629">
<g style="stroke-width:.025in; stroke:black; fill:none">
<!-- Line -->
<polyline points="7181,3543
7181,4204
" style="stroke:#000000;stroke-width:8;
stroke-linejoin:miter; stroke-linecap:butt;
"/>
<!-- Line -->
<polyline points="7086,4251
7086,3590
" style="stroke:#000000;stroke-width:8;
stroke-linejoin:miter; stroke-linecap:butt;
"/>
<!-- Arc -->
<path style="stroke:#000000;stroke-width:8;stroke-linecap:butt;"
d="M 7086,4251 A 74 74  0  0  0  7181  4204 " />
<!-- Line -->
<polyline points="6614,3070
6614,3543
6992,3637
6992,3165
" style="stroke:#000000;stroke-width:8;
stroke-linejoin:miter; stroke-linecap:butt;
"/>
<!-- Line -->
<polygon points="6614,3070
6992,3165
7559,2976
7181,2881
6614,3070
" style="stroke:#000000;stroke-width:8;
stroke-linejoin:miter; stroke-linecap:butt;
"/>
<!-- Line -->
<polygon points="6708,3212
6897,3259
6897,3307
6708,3259
6708,3212
" style="stroke:#000000;stroke-width:8;
stroke-linejoin:miter; stroke-linecap:butt;
"/>
<!-- Line -->
<polyline points="6992,3637
7559,3448
7559,2976
" style="stroke:#000000;stroke-width:8;
stroke-linejoin:miter; stroke-linecap:butt;
fill:#ffffff;
"/>
<!-- Circle -->
<circle cx="1795" cy="3023" r="188"
 style="stroke:#000000;stroke-width:8;"/>
<!-- Line -->
<polyline points="1795,3212
1795,3779
" style="stroke:#000000;stroke-width:8;
stroke-linejoin:miter; stroke-linecap:butt;
"/>
<!-- Line -->
<polyline points="1511,3401
2078,3401
" style="stroke:#000000;stroke-width:8;
stroke-linejoin:miter; stroke-linecap:butt;
"/>
<!-- Line -->
<polyline points="1511,4251
1795,3779
2078,4251
" style="stroke:#000000;stroke-width:8;
stroke-linejoin:miter; stroke-linecap:butt;
"/>
<!-- Line -->
<polygon points="2173,3212
1984,3685
2362,3685
2551,3212
2173,3212
" style="stroke:#000000;stroke-width:8;
stroke-linejoin:miter; stroke-linecap:butt;
"/>
<!-- Line -->
<polyline points="2173,3307
2456,3307
" style="stroke:#000000;stroke-width:8;
stroke-linejoin:miter; stroke-linecap:butt;
"/>
<!-- Line -->
<polyline points="2173,3401
2362,3401
" style="stroke:#000000;stroke-width:8;
stroke-linejoin:miter; stroke-linecap:butt;
"/>
<!-- Line -->
<polyline points="2173,3590
2267,3590
" style="stroke:#000000;stroke-width:8;
stroke-linejoin:miter; stroke-linecap:butt;
"/>
<!-- Arc -->
<path style="stroke:#000000;stroke-width:8;stroke-linecap:butt;"
d="M 3874,3118 A 236 236  0  0  0  3874  3496 " />
<!-- Arrowhead on XXXpoint 3791 3380 - 3874 3496-->
<polygon points="3764 3398
3864 3482
3816 3361
3764 3398

" style="stroke:#000000;stroke-width:8;
fill:#000000;"/>
<!-- Arc -->
<path style="stroke:#000000;stroke-width:8;stroke-linecap:butt;"
d="M 3874,3496 A 236 236  0  0  0  3874  3874 " />
<!-- Arrowhead on XXXpoint 3791 3758 - 3874 3874-->
<polygon points="3764 3776
3864 3860
3816 3739
3764 3776

" style="stroke:#000000;stroke-width:8;
fill:#000000;"/>
<!-- Arc -->
<path style="stroke:#000000;stroke-width:8;stroke-linecap:butt;"
d="M 5574,3968 A 236 236  0  0  1  5574  4346 " />
<!-- Arrowhead on XXXpoint 5657 4230 - 5574 4346-->
<polygon points="5631 4212
5584 4332
5682 4248
5631 4212

" style="stroke:#000000;stroke-width:8;
fill:#000000;"/>
<!-- Arc -->
<path style="stroke:#000000;stroke-width:8;stroke-linecap:butt;"
d="M 3874,3874 A 4342 4342  0  0  0  5574  3968 " />
<!-- Arrowhead on XXXpoint 5434 3986 - 5574 3968-->
<polygon points="5436 4016
5558 3970
5428 3954
5436 4016

" style="stroke:#000000;stroke-width:8;
fill:#000000;"/>
<!-- Text -->
<text xml:space="preserve" x="2362" y="4440" stroke="#000000" fill="#000000"  font-family="Helvetica" font-style="normal" font-weight="bold" font-size="177" text-anchor="start">Sender</text>
<!-- Text -->
<text xml:space="preserve" x="5999" y="4440" stroke="#000000" fill="#000000"  font-family="Helvetica" font-style="normal" font-weight="bold" font-size="177" text-anchor="start">Receiver</text>
<!-- Text -->
<text xml:space="preserve" x="2692" y="3354" stroke="#000000" fill="#000000"  font-family="Helvetica" font-style="normal" font-weight="normal" font-size="152" text-anchor="start">1. compute</text>
<!-- Text -->
<text xml:space="preserve" x="2976" y="3779" stroke="#000000" fill="#000000"  font-family="Helvetica" font-style="normal" font-weight="normal" font-size="152" text-anchor="start">2. solve</text>
<!-- Text -->
<text xml:space="preserve" x="5716" y="4062" stroke="#000000" fill="#000000"  font-family="Helvetica" font-style="normal" font-weight="normal" font-size="152" text-anchor="start">4. verify</text>
<!-- Text -->
<text xml:space="preserve" x="4440" y="3874" stroke="#000000" fill="#000000"  font-family="Helvetica" font-style="normal" font-weight="normal" font-size="152" text-anchor="start">3. send</text>
</g>
</svg>
