<?xml version="1.0" encoding="UTF-8" standalone="no"?>
<!-- Created with Inkscape (http://www.inkscape.org/) -->
<svg
   xmlns:svg="http://www.w3.org/2000/svg"
   xmlns="http://www.w3.org/2000/svg"
   version="1.0"
   width="783"
   height="243"
   id="svg8321">
  <defs
     id="defs8323">
 <style
   type="text/css"
   id="style9238" />

  
  
  
  
  
  
  
  
  
  
  
  
  
  
  
  
  
  
  
  
  
  
  
  
  
  
  
  
  
  
  
  
  
  
  
  
  
  
  
  
  
  
  
  
  
  
  
  
  
  
  
  
  
  
  
  
  
  
  
  
  
  
  
  
  
  
  
  
  
  
  
  
  
  
  
  
  
  
  
  
  
  
  
  
  
  
  
  
  
  
  
  
  
  
  
  
  
  
  
  
  
  
  
  
  
  
  
  
  
  
  
  
  
  
  
  
  
  
  
  
  
  
  
  
  
  
  
  
  
  
  
  
  
  
  
  
  
  
  
  
  
  
  
  
  
  
  
  
  
  
  
  
  
  
  
  
  
  
  
  
  
  
  
  
  
  
  
  
  
  
  
  
  
  
  
  
  
  
  
  
  
  
  
  
  
  
  
  
  
  
  
  
  
  
  
  
  
  
  
  
  
  
  
  
  
  
  
  
  
  
  
  
  
  
  
  
  
  
  
  
  
  
  
  
  
  
  
  
  
  
  
  
  
  
  
  
  
  
  
  
  
  
  
  
  
  
  
  
  
  
  
  
  
  
  
  
  
  
  
  
  
  
  
  
  
  
  
  
  
  
  
  
  
  
  
  
  
  
  
  
  
  
  
  
  
  
  
  
  
 </defs>
  <g
     transform="translate(-11.5,-326.43361)"
     id="layer1">
    <g
       transform="translate(3,3)"
       id="g10972">
      <path
         d="M 36.5,326.43361 L 765.5,326.43361 C 778.5,326.43361 788.5,335.43361 788.5,348.43361 L 788.5,540.43361 C 788.5,552.43361 778.5,563.43361 765.5,563.43361 L 36.5,563.43361 C 22.5,563.43361 11.5,552.43361 11.5,540.43361 L 11.5,348.43361 C 11.5,335.43361 22.5,326.43361 36.5,326.43361 z "
         style="fill:#f5f6f7;stroke:#202326;stroke-width:0"
         id="path9241" />
      <path
         d="M 49.5,406.43361 L 69.5,406.43361 C 70.5,406.43361 72.5,407.43361 72.5,409.43361 L 72.5,426.43361 C 72.5,428.43361 70.5,429.43361 69.5,429.43361 L 49.5,429.43361 C 47.5,429.43361 46.5,428.43361 46.5,426.43361 L 46.5,409.43361 C 46.5,407.43361 47.5,406.43361 49.5,406.43361 z "
         style="fill:#97c5d5;stroke:#202326;stroke-width:0"
         id="path9243" />
      <path
         d="M 79.5,406.43361 L 99.5,406.43361 C 101.5,406.43361 102.5,407.43361 102.5,409.43361 L 102.5,426.43361 C 102.5,428.43361 101.5,429.43361 99.5,429.43361 L 79.5,429.43361 C 77.5,429.43361 76.5,428.43361 76.5,426.43361 L 76.5,409.43361 C 76.5,407.43361 77.5,406.43361 79.5,406.43361 z "
         style="fill:#97c5d5;stroke:#202326;stroke-width:0"
         id="path9245" />
      <path
         d="M 108.5,406.43361 L 128.5,406.43361 C 130.5,406.43361 131.5,407.43361 131.5,409.43361 L 131.5,426.43361 C 131.5,428.43361 130.5,429.43361 128.5,429.43361 L 108.5,429.43361 C 107.5,429.43361 106.5,428.43361 106.5,426.43361 L 106.5,409.43361 C 106.5,407.43361 107.5,406.43361 108.5,406.43361 z "
         style="fill:#97c5d5;stroke:#202326;stroke-width:0"
         id="path9247" />
      <path
         d="M 138.5,406.43361 L 158.5,406.43361 C 160.5,406.43361 161.5,407.43361 161.5,409.43361 L 161.5,426.43361 C 161.5,428.43361 160.5,429.43361 158.5,429.43361 L 138.5,429.43361 C 136.5,429.43361 135.5,428.43361 135.5,426.43361 L 135.5,409.43361 C 135.5,407.43361 136.5,406.43361 138.5,406.43361 z "
         style="fill:#97c5d5;stroke:#202326;stroke-width:0"
         id="path9249" />
      <path
         d="M 168.5,406.43361 L 188.5,406.43361 C 190.5,406.43361 191.5,407.43361 191.5,409.43361 L 191.5,426.43361 C 191.5,428.43361 190.5,429.43361 188.5,429.43361 L 168.5,429.43361 C 167.5,429.43361 165.5,428.43361 165.5,426.43361 L 165.5,409.43361 C 165.5,407.43361 167.5,406.43361 168.5,406.43361 z "
         style="fill:#97c5d5;stroke:#202326;stroke-width:0"
         id="path9251" />
      <path
         d="M 198.5,406.43361 L 217.5,406.43361 C 219.5,406.43361 220.5,407.43361 220.5,409.43361 L 220.5,426.43361 C 220.5,428.43361 219.5,429.43361 217.5,429.43361 L 198.5,429.43361 C 197.5,429.43361 195.5,428.43361 195.5,426.43361 L 195.5,409.43361 C 195.5,407.43361 197.5,406.43361 198.5,406.43361 z "
         style="fill:#97c5d5;stroke:#202326;stroke-width:0"
         id="path9253" />
      <path
         d="M 227.5,406.43361 L 247.5,406.43361 C 249.5,406.43361 250.5,407.43361 250.5,409.43361 L 250.5,426.43361 C 250.5,428.43361 249.5,429.43361 247.5,429.43361 L 227.5,429.43361 C 226.5,429.43361 224.5,428.43361 224.5,426.43361 L 224.5,409.43361 C 224.5,407.43361 226.5,406.43361 227.5,406.43361 z "
         style="fill:#97c5d5;stroke:#202326;stroke-width:0"
         id="path9255" />
      <path
         d="M 257.5,406.43361 L 277.5,406.43361 C 279.5,406.43361 280.5,407.43361 280.5,409.43361 L 280.5,426.43361 C 280.5,428.43361 279.5,429.43361 277.5,429.43361 L 257.5,429.43361 C 256.5,429.43361 254.5,428.43361 254.5,426.43361 L 254.5,409.43361 C 254.5,407.43361 256.5,406.43361 257.5,406.43361 z "
         style="fill:#97c5d5;stroke:#202326;stroke-width:0"
         id="path9257" />
      <path
         d="M 287.5,406.43361 L 306.5,406.43361 C 308.5,406.43361 309.5,407.43361 309.5,409.43361 L 309.5,426.43361 C 309.5,428.43361 308.5,429.43361 306.5,429.43361 L 287.5,429.43361 C 286.5,429.43361 284.5,428.43361 284.5,426.43361 L 284.5,409.43361 C 284.5,407.43361 286.5,406.43361 287.5,406.43361 z "
         style="fill:#97c5d5;stroke:#202326;stroke-width:0"
         id="path9259" />
      <path
         d="M 316.5,406.43361 L 336.5,406.43361 C 338.5,406.43361 339.5,407.43361 339.5,409.43361 L 339.5,426.43361 C 339.5,428.43361 338.5,429.43361 336.5,429.43361 L 316.5,429.43361 C 315.5,429.43361 313.5,428.43361 313.5,426.43361 L 313.5,409.43361 C 313.5,407.43361 315.5,406.43361 316.5,406.43361 z "
         style="fill:#97c5d5;stroke:#202326;stroke-width:0"
         id="path9261" />
      <path
         d="M 346.5,406.43361 L 366.5,406.43361 C 368.5,406.43361 369.5,407.43361 369.5,409.43361 L 369.5,426.43361 C 369.5,428.43361 368.5,429.43361 366.5,429.43361 L 346.5,429.43361 C 345.5,429.43361 343.5,428.43361 343.5,426.43361 L 343.5,409.43361 C 343.5,407.43361 345.5,406.43361 346.5,406.43361 z "
         style="fill:#97c5d5;stroke:#202326;stroke-width:0"
         id="path9263" />
      <path
         d="M 376.5,406.43361 L 396.5,406.43361 C 397.5,406.43361 398.5,407.43361 398.5,409.43361 L 398.5,426.43361 C 398.5,428.43361 397.5,429.43361 396.5,429.43361 L 376.5,429.43361 C 375.5,429.43361 373.5,428.43361 373.5,426.43361 L 373.5,409.43361 C 373.5,407.43361 375.5,406.43361 376.5,406.43361 z "
         style="fill:#97c5d5;stroke:#202326;stroke-width:0"
         id="path9265" />
      <path
         d="M 405.5,406.43361 L 425.5,406.43361 C 427.5,406.43361 428.5,407.43361 428.5,409.43361 L 428.5,426.43361 C 428.5,428.43361 427.5,429.43361 425.5,429.43361 L 405.5,429.43361 C 404.5,429.43361 403.5,428.43361 403.5,426.43361 L 403.5,409.43361 C 403.5,407.43361 404.5,406.43361 405.5,406.43361 z "
         style="fill:#97c5d5;stroke:#202326;stroke-width:0"
         id="path9267" />
      <path
         d="M 435.5,406.43361 L 455.5,406.43361 C 457.5,406.43361 458.5,407.43361 458.5,409.43361 L 458.5,426.43361 C 458.5,428.43361 457.5,429.43361 455.5,429.43361 L 435.5,429.43361 C 434.5,429.43361 433.5,428.43361 433.5,426.43361 L 433.5,409.43361 C 433.5,407.43361 434.5,406.43361 435.5,406.43361 z "
         style="fill:#97c5d5;stroke:#202326;stroke-width:0"
         id="path9269" />
      <path
         d="M 465.5,406.43361 L 485.5,406.43361 C 487.5,406.43361 488.5,407.43361 488.5,409.43361 L 488.5,426.43361 C 488.5,428.43361 487.5,429.43361 485.5,429.43361 L 465.5,429.43361 C 464.5,429.43361 463.5,428.43361 463.5,426.43361 L 463.5,409.43361 C 463.5,407.43361 464.5,406.43361 465.5,406.43361 z "
         style="fill:#97c5d5;stroke:#202326;stroke-width:0"
         id="path9271" />
      <path
         d="M 97.5,431.43361 L 116.5,431.43361 C 118.5,431.43361 119.5,432.43361 119.5,434.43361 L 119.5,452.43361 C 119.5,453.43361 118.5,455.43361 116.5,455.43361 L 97.5,455.43361 C 96.5,455.43361 94.5,453.43361 94.5,452.43361 L 94.5,434.43361 C 94.5,432.43361 96.5,431.43361 97.5,431.43361 z "
         style="fill:#97c5d5;stroke:#202326;stroke-width:0"
         id="path9273" />
      <path
         d="M 126.5,431.43361 L 146.5,431.43361 C 148.5,431.43361 149.5,432.43361 149.5,434.43361 L 149.5,452.43361 C 149.5,453.43361 148.5,455.43361 146.5,455.43361 L 126.5,455.43361 C 125.5,455.43361 123.5,453.43361 123.5,452.43361 L 123.5,434.43361 C 123.5,432.43361 125.5,431.43361 126.5,431.43361 z "
         style="fill:#97c5d5;stroke:#202326;stroke-width:0"
         id="path9275" />
      <path
         d="M 156.5,431.43361 L 176.5,431.43361 C 178.5,431.43361 179.5,432.43361 179.5,434.43361 L 179.5,452.43361 C 179.5,453.43361 178.5,455.43361 176.5,455.43361 L 156.5,455.43361 C 155.5,455.43361 153.5,453.43361 153.5,452.43361 L 153.5,434.43361 C 153.5,432.43361 155.5,431.43361 156.5,431.43361 z "
         style="fill:#97c5d5;stroke:#202326;stroke-width:0"
         id="path9277" />
      <path
         d="M 186.5,431.43361 L 205.5,431.43361 C 207.5,431.43361 208.5,432.43361 208.5,434.43361 L 208.5,452.43361 C 208.5,453.43361 207.5,455.43361 205.5,455.43361 L 186.5,455.43361 C 185.5,455.43361 183.5,453.43361 183.5,452.43361 L 183.5,434.43361 C 183.5,432.43361 185.5,431.43361 186.5,431.43361 z "
         style="fill:#97c5d5;stroke:#202326;stroke-width:0"
         id="path9279" />
      <path
         d="M 215.5,431.43361 L 235.5,431.43361 C 237.5,431.43361 238.5,432.43361 238.5,434.43361 L 238.5,452.43361 C 238.5,453.43361 237.5,455.43361 235.5,455.43361 L 215.5,455.43361 C 214.5,455.43361 213.5,453.43361 213.5,452.43361 L 213.5,434.43361 C 213.5,432.43361 214.5,431.43361 215.5,431.43361 z "
         style="fill:#97c5d5;stroke:#202326;stroke-width:0"
         id="path9281" />
      <path
         d="M 245.5,431.43361 L 265.5,431.43361 C 267.5,431.43361 268.5,432.43361 268.5,434.43361 L 268.5,452.43361 C 268.5,453.43361 267.5,455.43361 265.5,455.43361 L 245.5,455.43361 C 244.5,455.43361 243.5,453.43361 243.5,452.43361 L 243.5,434.43361 C 243.5,432.43361 244.5,431.43361 245.5,431.43361 z "
         style="fill:#97c5d5;stroke:#202326;stroke-width:0"
         id="path9283" />
      <path
         d="M 275.5,431.43361 L 295.5,431.43361 C 297.5,431.43361 298.5,432.43361 298.5,434.43361 L 298.5,452.43361 C 298.5,453.43361 297.5,455.43361 295.5,455.43361 L 275.5,455.43361 C 274.5,455.43361 273.5,453.43361 273.5,452.43361 L 273.5,434.43361 C 273.5,432.43361 274.5,431.43361 275.5,431.43361 z "
         style="fill:#97c5d5;stroke:#202326;stroke-width:0"
         id="path9285" />
      <path
         d="M 304.5,431.43361 L 324.5,431.43361 C 326.5,431.43361 327.5,432.43361 327.5,434.43361 L 327.5,452.43361 C 327.5,453.43361 326.5,455.43361 324.5,455.43361 L 304.5,455.43361 C 303.5,455.43361 302.5,453.43361 302.5,452.43361 L 302.5,434.43361 C 302.5,432.43361 303.5,431.43361 304.5,431.43361 z "
         style="fill:#97c5d5;stroke:#202326;stroke-width:0"
         id="path9287" />
      <path
         d="M 334.5,431.43361 L 354.5,431.43361 C 356.5,431.43361 357.5,432.43361 357.5,434.43361 L 357.5,452.43361 C 357.5,453.43361 356.5,455.43361 354.5,455.43361 L 334.5,455.43361 C 333.5,455.43361 332.5,453.43361 332.5,452.43361 L 332.5,434.43361 C 332.5,432.43361 333.5,431.43361 334.5,431.43361 z "
         style="fill:#97c5d5;stroke:#202326;stroke-width:0"
         id="path9289" />
      <path
         d="M 364.5,431.43361 L 384.5,431.43361 C 386.5,431.43361 387.5,432.43361 387.5,434.43361 L 387.5,452.43361 C 387.5,453.43361 386.5,455.43361 384.5,455.43361 L 364.5,455.43361 C 363.5,455.43361 362.5,453.43361 362.5,452.43361 L 362.5,434.43361 C 362.5,432.43361 363.5,431.43361 364.5,431.43361 z "
         style="fill:#97c5d5;stroke:#202326;stroke-width:0"
         id="path9291" />
      <path
         d="M 394.5,431.43361 L 413.5,431.43361 C 415.5,431.43361 416.5,432.43361 416.5,434.43361 L 416.5,452.43361 C 416.5,453.43361 415.5,455.43361 413.5,455.43361 L 394.5,455.43361 C 393.5,455.43361 392.5,453.43361 392.5,452.43361 L 392.5,434.43361 C 392.5,432.43361 393.5,431.43361 394.5,431.43361 z "
         style="fill:#97c5d5;stroke:#202326;stroke-width:0"
         id="path9293" />
      <path
         d="M 423.5,431.43361 L 443.5,431.43361 C 445.5,431.43361 446.5,432.43361 446.5,434.43361 L 446.5,452.43361 C 446.5,453.43361 445.5,455.43361 443.5,455.43361 L 423.5,455.43361 C 422.5,455.43361 421.5,453.43361 421.5,452.43361 L 421.5,434.43361 C 421.5,432.43361 422.5,431.43361 423.5,431.43361 z "
         style="fill:#97c5d5;stroke:#202326;stroke-width:0"
         id="path9295" />
      <path
         d="M 105.5,457.43361 L 124.5,457.43361 C 125.5,457.43361 127.5,458.43361 127.5,459.43361 L 127.5,478.43361 C 127.5,479.43361 125.5,480.43361 124.5,480.43361 L 105.5,480.43361 C 103.5,480.43361 102.5,479.43361 102.5,478.43361 L 102.5,459.43361 C 102.5,458.43361 103.5,457.43361 105.5,457.43361 z "
         style="fill:#97c5d5;stroke:#202326;stroke-width:0"
         id="path9297" />
      <path
         d="M 134.5,457.43361 L 154.5,457.43361 C 155.5,457.43361 157.5,458.43361 157.5,459.43361 L 157.5,478.43361 C 157.5,479.43361 155.5,480.43361 154.5,480.43361 L 134.5,480.43361 C 132.5,480.43361 131.5,479.43361 131.5,478.43361 L 131.5,459.43361 C 131.5,458.43361 132.5,457.43361 134.5,457.43361 z "
         style="fill:#97c5d5;stroke:#202326;stroke-width:0"
         id="path9299" />
      <path
         d="M 164.5,457.43361 L 184.5,457.43361 C 186.5,457.43361 187.5,458.43361 187.5,459.43361 L 187.5,478.43361 C 187.5,479.43361 186.5,480.43361 184.5,480.43361 L 164.5,480.43361 C 162.5,480.43361 161.5,479.43361 161.5,478.43361 L 161.5,459.43361 C 161.5,458.43361 162.5,457.43361 164.5,457.43361 z "
         style="fill:#97c5d5;stroke:#202326;stroke-width:0"
         id="path9301" />
      <path
         d="M 194.5,457.43361 L 213.5,457.43361 C 215.5,457.43361 216.5,458.43361 216.5,459.43361 L 216.5,478.43361 C 216.5,479.43361 215.5,480.43361 213.5,480.43361 L 194.5,480.43361 C 192.5,480.43361 191.5,479.43361 191.5,478.43361 L 191.5,459.43361 C 191.5,458.43361 192.5,457.43361 194.5,457.43361 z "
         style="fill:#97c5d5;stroke:#202326;stroke-width:0"
         id="path9303" />
      <path
         d="M 223.5,457.43361 L 243.5,457.43361 C 245.5,457.43361 246.5,458.43361 246.5,459.43361 L 246.5,478.43361 C 246.5,479.43361 245.5,480.43361 243.5,480.43361 L 223.5,480.43361 C 221.5,480.43361 220.5,479.43361 220.5,478.43361 L 220.5,459.43361 C 220.5,458.43361 221.5,457.43361 223.5,457.43361 z "
         style="fill:#97c5d5;stroke:#202326;stroke-width:0"
         id="path9305" />
      <path
         d="M 253.5,457.43361 L 273.5,457.43361 C 275.5,457.43361 276.5,458.43361 276.5,459.43361 L 276.5,478.43361 C 276.5,479.43361 275.5,480.43361 273.5,480.43361 L 253.5,480.43361 C 252.5,480.43361 250.5,479.43361 250.5,478.43361 L 250.5,459.43361 C 250.5,458.43361 252.5,457.43361 253.5,457.43361 z "
         style="fill:#97c5d5;stroke:#202326;stroke-width:0"
         id="path9307" />
      <path
         d="M 283.5,457.43361 L 302.5,457.43361 C 304.5,457.43361 305.5,458.43361 305.5,459.43361 L 305.5,478.43361 C 305.5,479.43361 304.5,480.43361 302.5,480.43361 L 283.5,480.43361 C 282.5,480.43361 280.5,479.43361 280.5,478.43361 L 280.5,459.43361 C 280.5,458.43361 282.5,457.43361 283.5,457.43361 z "
         style="fill:#97c5d5;stroke:#202326;stroke-width:0"
         id="path9309" />
      <path
         d="M 312.5,457.43361 L 332.5,457.43361 C 334.5,457.43361 335.5,458.43361 335.5,459.43361 L 335.5,478.43361 C 335.5,479.43361 334.5,480.43361 332.5,480.43361 L 312.5,480.43361 C 311.5,480.43361 309.5,479.43361 309.5,478.43361 L 309.5,459.43361 C 309.5,458.43361 311.5,457.43361 312.5,457.43361 z "
         style="fill:#97c5d5;stroke:#202326;stroke-width:0"
         id="path9311" />
      <path
         d="M 342.5,457.43361 L 362.5,457.43361 C 364.5,457.43361 365.5,458.43361 365.5,459.43361 L 365.5,478.43361 C 365.5,479.43361 364.5,480.43361 362.5,480.43361 L 342.5,480.43361 C 341.5,480.43361 339.5,479.43361 339.5,478.43361 L 339.5,459.43361 C 339.5,458.43361 341.5,457.43361 342.5,457.43361 z "
         style="fill:#97c5d5;stroke:#202326;stroke-width:0"
         id="path9313" />
      <path
         d="M 372.5,457.43361 L 392.5,457.43361 C 394.5,457.43361 395.5,458.43361 395.5,459.43361 L 395.5,478.43361 C 395.5,479.43361 394.5,480.43361 392.5,480.43361 L 372.5,480.43361 C 371.5,480.43361 369.5,479.43361 369.5,478.43361 L 369.5,459.43361 C 369.5,458.43361 371.5,457.43361 372.5,457.43361 z "
         style="fill:#97c5d5;stroke:#202326;stroke-width:0"
         id="path9315" />
      <path
         d="M 401.5,457.43361 L 421.5,457.43361 C 423.5,457.43361 424.5,458.43361 424.5,459.43361 L 424.5,478.43361 C 424.5,479.43361 423.5,480.43361 421.5,480.43361 L 401.5,480.43361 C 400.5,480.43361 398.5,479.43361 398.5,478.43361 L 398.5,459.43361 C 398.5,458.43361 400.5,457.43361 401.5,457.43361 z "
         style="fill:#97c5d5;stroke:#202326;stroke-width:0"
         id="path9317" />
      <path
         d="M 115.5,482.43361 L 136.5,482.43361 C 137.5,482.43361 138.5,484.43361 138.5,485.43361 L 138.5,502.43361 C 138.5,504.43361 137.5,505.43361 136.5,505.43361 L 115.5,505.43361 C 114.5,505.43361 113.5,504.43361 113.5,502.43361 L 113.5,485.43361 C 113.5,484.43361 114.5,482.43361 115.5,482.43361 z "
         style="fill:#97c5d5;stroke:#202326;stroke-width:0"
         id="path9319" />
      <path
         d="M 145.5,482.43361 L 166.5,482.43361 C 167.5,482.43361 168.5,484.43361 168.5,485.43361 L 168.5,502.43361 C 168.5,504.43361 167.5,505.43361 166.5,505.43361 L 145.5,505.43361 C 144.5,505.43361 143.5,504.43361 143.5,502.43361 L 143.5,485.43361 C 143.5,484.43361 144.5,482.43361 145.5,482.43361 z "
         style="fill:#97c5d5;stroke:#202326;stroke-width:0"
         id="path9321" />
      <path
         d="M 175.5,482.43361 L 196.5,482.43361 C 197.5,482.43361 198.5,484.43361 198.5,485.43361 L 198.5,502.43361 C 198.5,504.43361 197.5,505.43361 196.5,505.43361 L 175.5,505.43361 C 174.5,505.43361 173.5,504.43361 173.5,502.43361 L 173.5,485.43361 C 173.5,484.43361 174.5,482.43361 175.5,482.43361 z "
         style="fill:#97c5d5;stroke:#202326;stroke-width:0"
         id="path9323" />
      <path
         d="M 235.5,482.43361 L 255.5,482.43361 C 256.5,482.43361 257.5,484.43361 257.5,485.43361 L 257.5,502.43361 C 257.5,504.43361 256.5,505.43361 255.5,505.43361 L 235.5,505.43361 C 233.5,505.43361 232.5,504.43361 232.5,502.43361 L 232.5,485.43361 C 232.5,484.43361 233.5,482.43361 235.5,482.43361 z "
         style="fill:#97c5d5;stroke:#202326;stroke-width:0"
         id="path9325" />
      <path
         d="M 265.5,482.43361 L 285.5,482.43361 C 286.5,482.43361 287.5,484.43361 287.5,485.43361 L 287.5,502.43361 C 287.5,504.43361 286.5,505.43361 285.5,505.43361 L 265.5,505.43361 C 263.5,505.43361 262.5,504.43361 262.5,502.43361 L 262.5,485.43361 C 262.5,484.43361 263.5,482.43361 265.5,482.43361 z "
         style="fill:#97c5d5;stroke:#202326;stroke-width:0"
         id="path9327" />
      <path
         d="M 295.5,482.43361 L 314.5,482.43361 C 315.5,482.43361 316.5,484.43361 316.5,485.43361 L 316.5,502.43361 C 316.5,504.43361 315.5,505.43361 314.5,505.43361 L 295.5,505.43361 C 293.5,505.43361 292.5,504.43361 292.5,502.43361 L 292.5,485.43361 C 292.5,484.43361 293.5,482.43361 295.5,482.43361 z "
         style="fill:#97c5d5;stroke:#202326;stroke-width:0"
         id="path9329" />
      <path
         d="M 324.5,482.43361 L 344.5,482.43361 C 345.5,482.43361 346.5,484.43361 346.5,485.43361 L 346.5,502.43361 C 346.5,504.43361 345.5,505.43361 344.5,505.43361 L 324.5,505.43361 C 322.5,505.43361 321.5,504.43361 321.5,502.43361 L 321.5,485.43361 C 321.5,484.43361 322.5,482.43361 324.5,482.43361 z "
         style="fill:#97c5d5;stroke:#202326;stroke-width:0"
         id="path9331" />
      <path
         d="M 354.5,482.43361 L 374.5,482.43361 C 375.5,482.43361 376.5,484.43361 376.5,485.43361 L 376.5,502.43361 C 376.5,504.43361 375.5,505.43361 374.5,505.43361 L 354.5,505.43361 C 352.5,505.43361 351.5,504.43361 351.5,502.43361 L 351.5,485.43361 C 351.5,484.43361 352.5,482.43361 354.5,482.43361 z "
         style="fill:#97c5d5;stroke:#202326;stroke-width:0"
         id="path9333" />
      <path
         d="M 384.5,482.43361 L 403.5,482.43361 C 404.5,482.43361 405.5,484.43361 405.5,485.43361 L 405.5,502.43361 C 405.5,504.43361 404.5,505.43361 403.5,505.43361 L 384.5,505.43361 C 382.5,505.43361 381.5,504.43361 381.5,502.43361 L 381.5,485.43361 C 381.5,484.43361 382.5,482.43361 384.5,482.43361 z "
         style="fill:#97c5d5;stroke:#202326;stroke-width:0"
         id="path9335" />
      <path
         d="M 49.5,365.43361 L 69.5,365.43361 C 70.5,365.43361 72.5,366.43361 72.5,368.43361 L 72.5,386.43361 C 72.5,387.43361 70.5,389.43361 69.5,389.43361 L 49.5,389.43361 C 47.5,389.43361 46.5,387.43361 46.5,386.43361 L 46.5,368.43361 C 46.5,366.43361 47.5,365.43361 49.5,365.43361 z "
         style="fill:#ffffff;stroke:#202326;stroke-width:0"
         id="path9337" />
      <path
         d="M 108.5,365.43361 L 128.5,365.43361 C 130.5,365.43361 131.5,366.43361 131.5,368.43361 L 131.5,386.43361 C 131.5,387.43361 130.5,389.43361 128.5,389.43361 L 108.5,389.43361 C 107.5,389.43361 106.5,387.43361 106.5,386.43361 L 106.5,368.43361 C 106.5,366.43361 107.5,365.43361 108.5,365.43361 z "
         style="fill:#edc07d;stroke:#202326;stroke-width:0"
         id="path9339" />
      <path
         d="M 138.5,365.43361 L 158.5,365.43361 C 160.5,365.43361 161.5,366.43361 161.5,368.43361 L 161.5,386.43361 C 161.5,387.43361 160.5,389.43361 158.5,389.43361 L 138.5,389.43361 C 136.5,389.43361 135.5,387.43361 135.5,386.43361 L 135.5,368.43361 C 135.5,366.43361 136.5,365.43361 138.5,365.43361 z "
         style="fill:#edc07d;stroke:#202326;stroke-width:0"
         id="path9341" />
      <path
         d="M 168.5,365.43361 L 188.5,365.43361 C 190.5,365.43361 191.5,366.43361 191.5,368.43361 L 191.5,386.43361 C 191.5,387.43361 190.5,389.43361 188.5,389.43361 L 168.5,389.43361 C 167.5,389.43361 165.5,387.43361 165.5,386.43361 L 165.5,368.43361 C 165.5,366.43361 167.5,365.43361 168.5,365.43361 z "
         style="fill:#edc07d;stroke:#202326;stroke-width:0"
         id="path9343" />
      <path
         d="M 198.5,365.43361 L 217.5,365.43361 C 219.5,365.43361 220.5,366.43361 220.5,368.43361 L 220.5,386.43361 C 220.5,387.43361 219.5,389.43361 217.5,389.43361 L 198.5,389.43361 C 197.5,389.43361 195.5,387.43361 195.5,386.43361 L 195.5,368.43361 C 195.5,366.43361 197.5,365.43361 198.5,365.43361 z "
         style="fill:#edc07d;stroke:#202326;stroke-width:0"
         id="path9345" />
      <path
         d="M 242.5,364.43361 L 262.5,364.43361 C 263.5,364.43361 264.5,366.43361 264.5,367.43361 L 264.5,385.43361 C 264.5,387.43361 263.5,388.43361 262.5,388.43361 L 242.5,388.43361 C 240.5,388.43361 239.5,387.43361 239.5,385.43361 L 239.5,367.43361 C 239.5,366.43361 240.5,364.43361 242.5,364.43361 z "
         style="fill:#edc07d;stroke:#202326;stroke-width:0"
         id="path9347" />
      <path
         d="M 272.5,364.43361 L 292.5,364.43361 C 293.5,364.43361 294.5,366.43361 294.5,367.43361 L 294.5,385.43361 C 294.5,387.43361 293.5,388.43361 292.5,388.43361 L 272.5,388.43361 C 270.5,388.43361 269.5,387.43361 269.5,385.43361 L 269.5,367.43361 C 269.5,366.43361 270.5,364.43361 272.5,364.43361 z "
         style="fill:#edc07d;stroke:#202326;stroke-width:0"
         id="path9349" />
      <path
         d="M 301.5,364.43361 L 321.5,364.43361 C 322.5,364.43361 323.5,366.43361 323.5,367.43361 L 323.5,385.43361 C 323.5,387.43361 322.5,388.43361 321.5,388.43361 L 301.5,388.43361 C 300.5,388.43361 299.5,387.43361 299.5,385.43361 L 299.5,367.43361 C 299.5,366.43361 300.5,364.43361 301.5,364.43361 z "
         style="fill:#edc07d;stroke:#202326;stroke-width:0"
         id="path9351" />
      <path
         d="M 331.5,364.43361 L 351.5,364.43361 C 352.5,364.43361 353.5,366.43361 353.5,367.43361 L 353.5,385.43361 C 353.5,387.43361 352.5,388.43361 351.5,388.43361 L 331.5,388.43361 C 329.5,388.43361 328.5,387.43361 328.5,385.43361 L 328.5,367.43361 C 328.5,366.43361 329.5,364.43361 331.5,364.43361 z "
         style="fill:#edc07d;stroke:#202326;stroke-width:0"
         id="path9353" />
      <path
         d="M 375.5,364.43361 L 395.5,364.43361 C 396.5,364.43361 397.5,366.43361 397.5,367.43361 L 397.5,385.43361 C 397.5,387.43361 396.5,388.43361 395.5,388.43361 L 375.5,388.43361 C 373.5,388.43361 372.5,387.43361 372.5,385.43361 L 372.5,367.43361 C 372.5,366.43361 373.5,364.43361 375.5,364.43361 z "
         style="fill:#edc07d;stroke:#202326;stroke-width:0"
         id="path9355" />
      <path
         d="M 404.5,364.43361 L 424.5,364.43361 C 425.5,364.43361 426.5,366.43361 426.5,367.43361 L 426.5,385.43361 C 426.5,387.43361 425.5,388.43361 424.5,388.43361 L 404.5,388.43361 C 402.5,388.43361 401.5,387.43361 401.5,385.43361 L 401.5,367.43361 C 401.5,366.43361 402.5,364.43361 404.5,364.43361 z "
         style="fill:#edc07d;stroke:#202326;stroke-width:0"
         id="path9357" />
      <path
         d="M 434.5,364.43361 L 454.5,364.43361 C 455.5,364.43361 456.5,366.43361 456.5,367.43361 L 456.5,385.43361 C 456.5,387.43361 455.5,388.43361 454.5,388.43361 L 434.5,388.43361 C 432.5,388.43361 431.5,387.43361 431.5,385.43361 L 431.5,367.43361 C 431.5,366.43361 432.5,364.43361 434.5,364.43361 z "
         style="fill:#edc07d;stroke:#202326;stroke-width:0"
         id="path9359" />
      <path
         d="M 464.5,364.43361 L 484.5,364.43361 C 485.5,364.43361 486.5,366.43361 486.5,367.43361 L 486.5,385.43361 C 486.5,387.43361 485.5,388.43361 484.5,388.43361 L 464.5,388.43361 C 462.5,388.43361 461.5,387.43361 461.5,385.43361 L 461.5,367.43361 C 461.5,366.43361 462.5,364.43361 464.5,364.43361 z "
         style="fill:#edc07d;stroke:#202326;stroke-width:0"
         id="path9361" />
      <path
         d="M 523.5,406.43361 L 543.5,406.43361 C 544.5,406.43361 545.5,407.43361 545.5,408.43361 L 545.5,426.43361 C 545.5,427.43361 544.5,428.43361 543.5,428.43361 L 523.5,428.43361 C 521.5,428.43361 520.5,427.43361 520.5,426.43361 L 520.5,408.43361 C 520.5,407.43361 521.5,406.43361 523.5,406.43361 z "
         style="fill:#ffffff;stroke:#202326;stroke-width:0"
         id="path9363" />
      <path
         d="M 553.5,406.43361 L 573.5,406.43361 C 574.5,406.43361 575.5,407.43361 575.5,408.43361 L 575.5,426.43361 C 575.5,427.43361 574.5,428.43361 573.5,428.43361 L 553.5,428.43361 C 551.5,428.43361 550.5,427.43361 550.5,426.43361 L 550.5,408.43361 C 550.5,407.43361 551.5,406.43361 553.5,406.43361 z "
         style="fill:#ffffff;stroke:#202326;stroke-width:0"
         id="path9365" />
      <path
         d="M 583.5,406.43361 L 602.5,406.43361 C 603.5,406.43361 604.5,407.43361 604.5,408.43361 L 604.5,426.43361 C 604.5,427.43361 603.5,428.43361 602.5,428.43361 L 583.5,428.43361 C 581.5,428.43361 580.5,427.43361 580.5,426.43361 L 580.5,408.43361 C 580.5,407.43361 581.5,406.43361 583.5,406.43361 z "
         style="fill:#ffffff;stroke:#202326;stroke-width:0"
         id="path9367" />
      <path
         d="M 521.5,364.43361 L 541.5,364.43361 C 543.5,364.43361 544.5,366.43361 544.5,367.43361 L 544.5,385.43361 C 544.5,387.43361 543.5,388.43361 541.5,388.43361 L 521.5,388.43361 C 520.5,388.43361 518.5,387.43361 518.5,385.43361 L 518.5,367.43361 C 518.5,366.43361 520.5,364.43361 521.5,364.43361 z "
         style="fill:#ffffff;stroke:#202326;stroke-width:0"
         id="path9369" />
      <path
         d="M 551.5,364.43361 L 571.5,364.43361 C 573.5,364.43361 574.5,366.43361 574.5,367.43361 L 574.5,385.43361 C 574.5,387.43361 573.5,388.43361 571.5,388.43361 L 551.5,388.43361 C 550.5,388.43361 548.5,387.43361 548.5,385.43361 L 548.5,367.43361 C 548.5,366.43361 550.5,364.43361 551.5,364.43361 z "
         style="fill:#ffffff;stroke:#202326;stroke-width:0"
         id="path9371" />
      <path
         d="M 581.5,364.43361 L 600.5,364.43361 C 602.5,364.43361 603.5,366.43361 603.5,367.43361 L 603.5,385.43361 C 603.5,387.43361 602.5,388.43361 600.5,388.43361 L 581.5,388.43361 C 580.5,388.43361 578.5,387.43361 578.5,385.43361 L 578.5,367.43361 C 578.5,366.43361 580.5,364.43361 581.5,364.43361 z "
         style="fill:#ffffff;stroke:#202326;stroke-width:0"
         id="path9373" />
      <path
         d="M 523.5,430.43361 L 543.5,430.43361 C 544.5,430.43361 545.5,432.43361 545.5,433.43361 L 545.5,451.43361 C 545.5,453.43361 544.5,454.43361 543.5,454.43361 L 523.5,454.43361 C 521.5,454.43361 520.5,453.43361 520.5,451.43361 L 520.5,433.43361 C 520.5,432.43361 521.5,430.43361 523.5,430.43361 z "
         style="fill:#ffffff;stroke:#202326;stroke-width:0"
         id="path9375" />
      <path
         d="M 553.5,430.43361 L 573.5,430.43361 C 574.5,430.43361 575.5,432.43361 575.5,433.43361 L 575.5,451.43361 C 575.5,453.43361 574.5,454.43361 573.5,454.43361 L 553.5,454.43361 C 551.5,454.43361 550.5,453.43361 550.5,451.43361 L 550.5,433.43361 C 550.5,432.43361 551.5,430.43361 553.5,430.43361 z "
         style="fill:#ffffff;stroke:#202326;stroke-width:0"
         id="path9377" />
      <path
         d="M 583.5,430.43361 L 602.5,430.43361 C 603.5,430.43361 604.5,432.43361 604.5,433.43361 L 604.5,451.43361 C 604.5,453.43361 603.5,454.43361 602.5,454.43361 L 583.5,454.43361 C 581.5,454.43361 580.5,453.43361 580.5,451.43361 L 580.5,433.43361 C 580.5,432.43361 581.5,430.43361 583.5,430.43361 z "
         style="fill:#ffffff;stroke:#202326;stroke-width:0"
         id="path9379" />
      <path
         d="M 523.5,507.43361 L 543.5,507.43361 C 544.5,507.43361 545.5,508.43361 545.5,509.43361 L 545.5,528.43361 C 545.5,529.43361 544.5,530.43361 543.5,530.43361 L 523.5,530.43361 C 521.5,530.43361 520.5,529.43361 520.5,528.43361 L 520.5,509.43361 C 520.5,508.43361 521.5,507.43361 523.5,507.43361 z "
         style="fill:#a8d1b1;stroke:#202326;stroke-width:0"
         id="path9381" />
      <path
         d="M 553.5,507.43361 L 573.5,507.43361 C 574.5,507.43361 575.5,508.43361 575.5,509.43361 L 575.5,528.43361 C 575.5,529.43361 574.5,530.43361 573.5,530.43361 L 553.5,530.43361 C 551.5,530.43361 550.5,529.43361 550.5,528.43361 L 550.5,509.43361 C 550.5,508.43361 551.5,507.43361 553.5,507.43361 z "
         style="fill:#a8d1b1;stroke:#202326;stroke-width:0"
         id="path9383" />
      <path
         d="M 583.5,507.43361 L 602.5,507.43361 C 603.5,507.43361 604.5,508.43361 604.5,509.43361 L 604.5,528.43361 C 604.5,529.43361 603.5,530.43361 602.5,530.43361 L 583.5,530.43361 C 581.5,530.43361 580.5,529.43361 580.5,528.43361 L 580.5,509.43361 C 580.5,508.43361 581.5,507.43361 583.5,507.43361 z "
         style="fill:#a8d1b1;stroke:#202326;stroke-width:0"
         id="path9385" />
      <path
         d="M 553.5,482.43361 L 573.5,482.43361 C 574.5,482.43361 575.5,483.43361 575.5,485.43361 L 575.5,502.43361 C 575.5,503.43361 574.5,505.43361 573.5,505.43361 L 553.5,505.43361 C 551.5,505.43361 550.5,503.43361 550.5,502.43361 L 550.5,485.43361 C 550.5,483.43361 551.5,482.43361 553.5,482.43361 z "
         style="fill:#a8d1b1;stroke:#202326;stroke-width:0"
         id="path9387" />
      <path
         d="M 640.5,406.43361 L 660.5,406.43361 C 662.5,406.43361 663.5,407.43361 663.5,408.43361 L 663.5,426.43361 C 663.5,427.43361 662.5,428.43361 660.5,428.43361 L 640.5,428.43361 C 639.5,428.43361 637.5,427.43361 637.5,426.43361 L 637.5,408.43361 C 637.5,407.43361 639.5,406.43361 640.5,406.43361 z "
         style="fill:#9faaca;stroke:#202326;stroke-width:0"
         id="path9389" />
      <path
         d="M 670.5,406.43361 L 689.5,406.43361 C 691.5,406.43361 692.5,407.43361 692.5,408.43361 L 692.5,426.43361 C 692.5,427.43361 691.5,428.43361 689.5,428.43361 L 670.5,428.43361 C 669.5,428.43361 667.5,427.43361 667.5,426.43361 L 667.5,408.43361 C 667.5,407.43361 669.5,406.43361 670.5,406.43361 z "
         style="fill:#9faaca;stroke:#202326;stroke-width:0"
         id="path9391" />
      <path
         d="M 699.5,406.43361 L 719.5,406.43361 C 721.5,406.43361 722.5,407.43361 722.5,408.43361 L 722.5,426.43361 C 722.5,427.43361 721.5,428.43361 719.5,428.43361 L 699.5,428.43361 C 698.5,428.43361 696.5,427.43361 696.5,426.43361 L 696.5,408.43361 C 696.5,407.43361 698.5,406.43361 699.5,406.43361 z "
         style="fill:#9faaca;stroke:#202326;stroke-width:0"
         id="path9393" />
      <path
         d="M 640.5,430.43361 L 660.5,430.43361 C 662.5,430.43361 663.5,432.43361 663.5,433.43361 L 663.5,451.43361 C 663.5,453.43361 662.5,454.43361 660.5,454.43361 L 640.5,454.43361 C 639.5,454.43361 637.5,453.43361 637.5,451.43361 L 637.5,433.43361 C 637.5,432.43361 639.5,430.43361 640.5,430.43361 z "
         style="fill:#9faaca;stroke:#202326;stroke-width:0"
         id="path9395" />
      <path
         d="M 670.5,430.43361 L 689.5,430.43361 C 691.5,430.43361 692.5,432.43361 692.5,433.43361 L 692.5,451.43361 C 692.5,453.43361 691.5,454.43361 689.5,454.43361 L 670.5,454.43361 C 669.5,454.43361 667.5,453.43361 667.5,451.43361 L 667.5,433.43361 C 667.5,432.43361 669.5,430.43361 670.5,430.43361 z "
         style="fill:#9faaca;stroke:#202326;stroke-width:0"
         id="path9397" />
      <path
         d="M 699.5,430.43361 L 719.5,430.43361 C 721.5,430.43361 722.5,432.43361 722.5,433.43361 L 722.5,451.43361 C 722.5,453.43361 721.5,454.43361 719.5,454.43361 L 699.5,454.43361 C 698.5,454.43361 696.5,453.43361 696.5,451.43361 L 696.5,433.43361 C 696.5,432.43361 698.5,430.43361 699.5,430.43361 z "
         style="fill:#9faaca;stroke:#202326;stroke-width:0"
         id="path9399" />
      <path
         d="M 640.5,456.43361 L 660.5,456.43361 C 662.5,456.43361 663.5,457.43361 663.5,459.43361 L 663.5,477.43361 C 663.5,479.43361 662.5,480.43361 660.5,480.43361 L 640.5,480.43361 C 639.5,480.43361 637.5,479.43361 637.5,477.43361 L 637.5,459.43361 C 637.5,457.43361 639.5,456.43361 640.5,456.43361 z "
         style="fill:#9faaca;stroke:#202326;stroke-width:0"
         id="path9401" />
      <path
         d="M 670.5,456.43361 L 689.5,456.43361 C 691.5,456.43361 692.5,457.43361 692.5,459.43361 L 692.5,477.43361 C 692.5,479.43361 691.5,480.43361 689.5,480.43361 L 670.5,480.43361 C 669.5,480.43361 667.5,479.43361 667.5,477.43361 L 667.5,459.43361 C 667.5,457.43361 669.5,456.43361 670.5,456.43361 z "
         style="fill:#9faaca;stroke:#202326;stroke-width:0"
         id="path9403" />
      <path
         d="M 699.5,456.43361 L 719.5,456.43361 C 721.5,456.43361 722.5,457.43361 722.5,459.43361 L 722.5,477.43361 C 722.5,479.43361 721.5,480.43361 719.5,480.43361 L 699.5,480.43361 C 698.5,480.43361 696.5,479.43361 696.5,477.43361 L 696.5,459.43361 C 696.5,457.43361 698.5,456.43361 699.5,456.43361 z "
         style="fill:#9faaca;stroke:#202326;stroke-width:0"
         id="path9405" />
      <path
         d="M 640.5,482.43361 L 660.5,482.43361 C 662.5,482.43361 663.5,483.43361 663.5,485.43361 L 663.5,502.43361 C 663.5,503.43361 662.5,505.43361 660.5,505.43361 L 640.5,505.43361 C 639.5,505.43361 637.5,503.43361 637.5,502.43361 L 637.5,485.43361 C 637.5,483.43361 639.5,482.43361 640.5,482.43361 z "
         style="fill:#9faaca;stroke:#202326;stroke-width:0"
         id="path9407" />
      <path
         d="M 670.5,482.43361 L 689.5,482.43361 C 691.5,482.43361 692.5,483.43361 692.5,485.43361 L 692.5,502.43361 C 692.5,503.43361 691.5,505.43361 689.5,505.43361 L 670.5,505.43361 C 669.5,505.43361 667.5,503.43361 667.5,502.43361 L 667.5,485.43361 C 667.5,483.43361 669.5,482.43361 670.5,482.43361 z "
         style="fill:#9faaca;stroke:#202326;stroke-width:0"
         id="path9409" />
      <path
         d="M 699.5,482.43361 L 719.5,482.43361 C 721.5,482.43361 722.5,483.43361 722.5,485.43361 L 722.5,502.43361 C 722.5,503.43361 721.5,505.43361 719.5,505.43361 L 699.5,505.43361 C 698.5,505.43361 696.5,503.43361 696.5,502.43361 L 696.5,485.43361 C 696.5,483.43361 698.5,482.43361 699.5,482.43361 z "
         style="fill:#9faaca;stroke:#202326;stroke-width:0"
         id="path9411" />
      <path
         d="M 699.5,507.43361 L 719.5,507.43361 C 721.5,507.43361 722.5,508.43361 722.5,509.43361 L 722.5,528.43361 C 722.5,529.43361 721.5,530.43361 719.5,530.43361 L 699.5,530.43361 C 698.5,530.43361 696.5,529.43361 696.5,528.43361 L 696.5,509.43361 C 696.5,508.43361 698.5,507.43361 699.5,507.43361 z "
         style="fill:#9faaca;stroke:#202326;stroke-width:0"
         id="path9413" />
      <path
         d="M 729.5,406.43361 L 749.5,406.43361 C 751.5,406.43361 752.5,407.43361 752.5,408.43361 L 752.5,426.43361 C 752.5,427.43361 751.5,428.43361 749.5,428.43361 L 729.5,428.43361 C 728.5,428.43361 726.5,427.43361 726.5,426.43361 L 726.5,408.43361 C 726.5,407.43361 728.5,406.43361 729.5,406.43361 z "
         style="fill:#9faaca;stroke:#202326;stroke-width:0"
         id="path9415" />
      <path
         d="M 164.5,507.43361 L 153.5,507.43361 C 151.5,507.43361 150.5,508.43361 150.5,510.43361 L 150.5,528.43361 C 150.5,530.43361 151.5,531.43361 153.5,531.43361 L 164.5,531.43361 L 332.5,531.43361 L 350.5,531.43361 C 350.5,531.43361 351.5,530.43361 351.5,528.43361 L 351.5,510.43361 C 351.5,508.43361 350.5,507.43361 350.5,507.43361 L 332.5,507.43361 L 164.5,507.43361 z "
         style="fill:#97c5d5;stroke:#202326;stroke-width:0"
         id="path9417" />
      <path
         d="M 393.5,507.43361 L 412.5,507.43361 C 413.5,507.43361 414.5,508.43361 414.5,510.43361 L 414.5,528.43361 C 414.5,530.43361 413.5,531.43361 412.5,531.43361 L 393.5,531.43361 C 391.5,531.43361 390.5,530.43361 390.5,528.43361 L 390.5,510.43361 C 390.5,508.43361 391.5,507.43361 393.5,507.43361 z "
         style="fill:#e8a8a5;stroke:#202326;stroke-width:0"
         id="path9419" />
      <path
         d="M 422.5,507.43361 L 442.5,507.43361 C 443.5,507.43361 444.5,508.43361 444.5,510.43361 L 444.5,528.43361 C 444.5,530.43361 443.5,531.43361 442.5,531.43361 L 422.5,531.43361 C 420.5,531.43361 419.5,530.43361 419.5,528.43361 L 419.5,510.43361 C 419.5,508.43361 420.5,507.43361 422.5,507.43361 z "
         style="fill:#a97ca9;stroke:#202326;stroke-width:0"
         id="path9421" />
      <path
         d="M 752.5,433.43361 C 752.5,432.43361 751.5,430.43361 749.5,430.43361 L 729.5,430.43361 C 728.5,430.43361 726.5,432.43361 726.5,433.43361 L 726.5,477.43361 C 726.5,479.43361 728.5,480.43361 729.5,480.43361 L 749.5,480.43361 C 751.5,480.43361 752.5,479.43361 752.5,477.43361 L 752.5,433.43361 z "
         style="fill:#9faaca;stroke:#202326;stroke-width:0"
         id="path9423" />
      <path
         d="M 752.5,485.43361 C 752.5,483.43361 751.5,482.43361 749.5,482.43361 L 729.5,482.43361 C 728.5,482.43361 726.5,483.43361 726.5,485.43361 L 726.5,528.43361 C 726.5,529.43361 728.5,530.43361 729.5,530.43361 L 749.5,530.43361 C 751.5,530.43361 752.5,529.43361 752.5,528.43361 L 752.5,485.43361 z "
         style="fill:#f1efbe;stroke:#202326;stroke-width:0"
         id="path9425" />
      <path
         d="M 204.5,482.43361 L 225.5,482.43361 C 226.5,482.43361 227.5,484.43361 227.5,485.43361 L 227.5,502.43361 C 227.5,504.43361 226.5,505.43361 225.5,505.43361 L 204.5,505.43361 C 204.5,505.43361 203.5,504.43361 203.5,502.43361 L 203.5,485.43361 C 203.5,484.43361 204.5,482.43361 204.5,482.43361 z "
         style="fill:#97c5d5;stroke:#202326;stroke-width:0"
         id="path9427" />
      <path
         d="M 49.5,455.43361 C 47.5,455.43361 46.5,453.43361 46.5,452.43361 L 46.5,434.43361 C 46.5,432.43361 47.5,431.43361 49.5,431.43361 L 87.5,431.43361 C 89.5,431.43361 90.5,432.43361 90.5,434.43361 L 90.5,452.43361 C 90.5,453.43361 89.5,455.43361 87.5,455.43361 L 49.5,455.43361 z "
         style="fill:#97c5d5;stroke:#202326;stroke-width:0"
         id="path9429" />
      <path
         d="M 49.5,480.43361 C 48.5,480.43361 46.5,479.43361 46.5,478.43361 L 46.5,459.43361 C 46.5,458.43361 48.5,457.43361 49.5,457.43361 L 94.5,457.43361 C 96.5,457.43361 98.5,458.43361 98.5,459.43361 L 98.5,478.43361 C 98.5,479.43361 96.5,480.43361 94.5,480.43361 L 49.5,480.43361 z "
         style="fill:#97c5d5;stroke:#202326;stroke-width:0"
         id="path9431" />
      <g
         transform="matrix(0.774557,0,0,0.77345,-207.873,300.11631)"
         id="g9433">
   <text
   x="400"
   y="192"
   style="font-size:18px;font-weight:normal;fill:#2b2828;font-family:Arial"
   id="text9435">Q</text>

  </g>
      <g
         transform="matrix(0.774557,0,0,0.77345,-180.161,300.11631)"
         id="g9437">
   <text
   x="400"
   y="192"
   style="font-size:18px;font-weight:normal;fill:#2b2828;font-family:Arial"
   id="text9439">W</text>

  </g>
      <g
         transform="matrix(0.774557,0,0,0.77345,-147.5,300.11631)"
         id="g9441">
   <text
   x="400"
   y="192"
   style="font-size:18px;font-weight:normal;fill:#2b2828;font-family:Arial"
   id="text9443">E</text>

  </g>
      <g
         transform="matrix(0.774557,0,0,0.77345,-118.798,300.11631)"
         id="g9445">
   <text
   x="400"
   y="192"
   style="font-size:18px;font-weight:normal;fill:#2b2828;font-family:Arial"
   id="text9447">R</text>

  </g>
      <g
         transform="matrix(0.774557,0,0,0.77345,-88.1165,300.11631)"
         id="g9449">
   <text
   x="400"
   y="192"
   style="font-size:18px;font-weight:normal;fill:#2b2828;font-family:Arial"
   id="text9451">T</text>

  </g>
      <g
         transform="matrix(0.774557,0,0,0.77345,-58.4247,300.11631)"
         id="g9453">
   <text
   x="400"
   y="192"
   style="font-size:18px;font-weight:normal;fill:#2b2828;font-family:Arial"
   id="text9455">Y</text>

  </g>
      <g
         transform="matrix(0.774557,0,0,0.77345,-28.7329,300.11631)"
         id="g9457">
   <text
   x="400"
   y="192"
   style="font-size:18px;font-weight:normal;fill:#2b2828;font-family:Arial"
   id="text9459">U</text>

  </g>
      <g
         transform="matrix(0.774557,0,0,0.77345,3.92831,300.11631)"
         id="g9461">
   <text
   x="400"
   y="192"
   style="font-size:18px;font-weight:normal;fill:#2b2828;font-family:Arial"
   id="text9463">I</text>

  </g>
      <g
         transform="matrix(0.774557,0,0,0.77345,29.6613,300.11631)"
         id="g9465">
   <text
   x="400"
   y="192"
   style="font-size:18px;font-weight:normal;fill:#2b2828;font-family:Arial"
   id="text9467">O</text>

  </g>
      <g
         transform="matrix(0.774557,0,0,0.77345,60.3426,300.11631)"
         id="g9469">
   <text
   x="400"
   y="192"
   style="font-size:18px;font-weight:normal;fill:#2b2828;font-family:Arial"
   id="text9471">P</text>

  </g>
      <g
         transform="matrix(0.774557,0,0,0.77345,-199.956,325.81251)"
         id="g9473">
   <text
   x="400"
   y="192"
   style="font-size:18px;font-weight:normal;fill:#2b2828;font-family:Arial"
   id="text9475">A</text>

  </g>
      <g
         transform="matrix(0.774557,0,0,0.77345,-169.274,325.81251)"
         id="g9477">
   <text
   x="400"
   y="192"
   style="font-size:18px;font-weight:normal;fill:#2b2828;font-family:Arial"
   id="text9479">S</text>

  </g>
      <g
         transform="matrix(0.774557,0,0,0.77345,-140.572,325.81251)"
         id="g9481">
   <text
   x="400"
   y="192"
   style="font-size:18px;font-weight:normal;fill:#2b2828;font-family:Arial"
   id="text9483">D</text>

  </g>
      <g
         transform="matrix(0.774557,0,0,0.77345,-109.89,325.81251)"
         id="g9485">
   <text
   x="400"
   y="192"
   style="font-size:18px;font-weight:normal;fill:#2b2828;font-family:Arial"
   id="text9487">F</text>

  </g>
      <g
         transform="matrix(0.774557,0,0,0.77345,-81.1883,325.81251)"
         id="g9489">
   <text
   x="400"
   y="192"
   style="font-size:18px;font-weight:normal;fill:#2b2828;font-family:Arial"
   id="text9491">G</text>

  </g>
      <g
         transform="matrix(0.774557,0,0,0.77345,-51.4965,325.81251)"
         id="g9493">
   <text
   x="400"
   y="192"
   style="font-size:18px;font-weight:normal;fill:#2b2828;font-family:Arial"
   id="text9495">H</text>

  </g>
      <g
         transform="matrix(0.774557,0,0,0.77345,-19.8252,325.81251)"
         id="g9497">
   <text
   x="400"
   y="192"
   style="font-size:18px;font-weight:normal;fill:#2b2828;font-family:Arial"
   id="text9499">J</text>

  </g>
      <g
         transform="matrix(0.774557,0,0,0.77345,7.88717,325.81251)"
         id="g9501">
   <text
   x="400"
   y="192"
   style="font-size:18px;font-weight:normal;fill:#2b2828;font-family:Arial"
   id="text9503">K</text>

  </g>
      <g
         transform="matrix(0.774557,0,0,0.77345,38.5689,325.81251)"
         id="g9505">
   <text
   x="400"
   y="192"
   style="font-size:18px;font-weight:normal;fill:#2b2828;font-family:Arial"
   id="text9507">L</text>

  </g>
      <g
         transform="matrix(0.774557,0,0,0.77345,-188.079,350.52041)"
         id="g9509">
   <text
   x="400"
   y="192"
   style="font-size:18px;font-weight:normal;fill:#2b2828;font-family:Arial"
   id="text9511">Z</text>

  </g>
      <g
         transform="matrix(0.774557,0,0,0.77345,-158.387,350.52041)"
         id="g9513">
   <text
   x="400"
   y="192"
   style="font-size:18px;font-weight:normal;fill:#2b2828;font-family:Arial"
   id="text9515">X</text>

  </g>
      <g
         transform="matrix(0.774557,0,0,0.77345,-128.695,350.52041)"
         id="g9517">
   <text
   x="400"
   y="192"
   style="font-size:18px;font-weight:normal;fill:#2b2828;font-family:Arial"
   id="text9519">C</text>

  </g>
      <g
         transform="matrix(0.774557,0,0,0.77345,-99.004,350.52041)"
         id="g9521">
   <text
   x="400"
   y="192"
   style="font-size:18px;font-weight:normal;fill:#2b2828;font-family:Arial"
   id="text9523">V</text>

  </g>
      <g
         transform="matrix(0.774557,0,0,0.77345,-69.3117,350.52041)"
         id="g9525">
   <text
   x="400"
   y="192"
   style="font-size:18px;font-weight:normal;fill:#2b2828;font-family:Arial"
   id="text9527">B</text>

  </g>
      <g
         transform="matrix(0.774557,0,0,0.77345,-39.6195,350.52041)"
         id="g9529">
   <text
   x="400"
   y="192"
   style="font-size:18px;font-weight:normal;fill:#2b2828;font-family:Arial"
   id="text9531">N</text>

  </g>
      <g
         transform="matrix(0.774557,0,0,0.77345,-10.9176,350.52041)"
         id="g9533">
   <text
   x="400"
   y="192"
   style="font-size:18px;font-weight:normal;fill:#2b2828;font-family:Arial"
   id="text9535">M</text>

  </g>
      <path
         d="M 563.5,498.43361 L 563.5,488.43361"
         style="fill:none;stroke:#2b2828;stroke-width:0"
         id="path9537" />
      <path
         d="M 561.5,490.43361 L 563.5,487.43361 L 565.5,490.43361 L 561.5,490.43361 L 563.5,488.43361 L 561.5,490.43361 z "
         style="fill:#2b2828"
         id="path9539" />
      <path
         d="M 563.5,513.43361 L 563.5,524.43361"
         style="fill:none;stroke:#2b2828;stroke-width:0"
         id="path9541" />
      <path
         d="M 565.5,522.43361 L 563.5,526.43361 L 561.5,522.43361 L 565.5,522.43361 L 563.5,524.43361 L 565.5,522.43361 z "
         style="fill:#2b2828"
         id="path9543" />
      <path
         d="M 587.5,518.43361 L 597.5,518.43361"
         style="fill:none;stroke:#2b2828;stroke-width:0"
         id="path9545" />
      <path
         d="M 595.5,517.43361 L 599.5,518.43361 L 595.5,520.43361 L 595.5,517.43361 L 597.5,518.43361 L 595.5,517.43361 z "
         style="fill:#2b2828"
         id="path9547" />
      <path
         d="M 538.5,518.43361 L 527.5,518.43361"
         style="fill:none;stroke:#2b2828;stroke-width:0"
         id="path9549" />
      <path
         d="M 529.5,520.43361 L 526.5,518.43361 L 529.5,517.43361 L 529.5,520.43361 L 527.5,518.43361 L 529.5,520.43361 z "
         style="fill:#2b2828"
         id="path9551" />
      <g
         transform="matrix(0.774557,0,0,0.77345,333.507,267.50191)"
         id="g9553">
   <text
   x="400"
   y="192"
   style="font-size:9px;font-weight:normal;fill:#2b2828;font-family:Arial"
   id="text9555">Num</text>

  </g>
      <g
         transform="matrix(0.774557,0,0,0.77345,333.507,275.40841)"
         id="g9557">
   <text
   x="400"
   y="192"
   style="font-size:9px;font-weight:normal;fill:#2b2828;font-family:Arial"
   id="text9559">Lock</text>

  </g>
      <g
         transform="matrix(0.774557,0,0,0.77345,329.549,291.22141)"
         id="g9561">
   <text
   x="400"
   y="192"
   style="font-size:12px;font-weight:normal;fill:#2b2828;font-family:Arial"
   id="text9563">7</text>

  </g>
      <g
         transform="matrix(0.774557,0,0,0.77345,329.549,315.92926)"
         id="g9565">
   <text
   x="400"
   y="192"
   style="font-size:12px;font-weight:normal;fill:#2b2828;font-family:Arial"
   id="text9567">4</text>

  </g>
      <g
         transform="matrix(0.774557,0,0,0.77345,329.549,341.62551)"
         id="g9569">
   <text
   x="400"
   y="192"
   style="font-size:12px;font-weight:normal;fill:#2b2828;font-family:Arial"
   id="text9571">1</text>

  </g>
      <g
         transform="matrix(0.774557,0,0,0.77345,360.23,265.52551)"
         id="g9573">
   <text
   x="400"
   y="192"
   style="font-size:12px;font-weight:normal;fill:#2b2828;font-family:Arial"
   id="text9575">/</text>

  </g>
      <g
         transform="matrix(0.774557,0,0,0.77345,360.23,291.22141)"
         id="g9577">
   <text
   x="400"
   y="192"
   style="font-size:12px;font-weight:normal;fill:#2b2828;font-family:Arial"
   id="text9579">8</text>

  </g>
      <g
         transform="matrix(0.774557,0,0,0.77345,360.23,315.92926)"
         id="g9581">
   <text
   x="400"
   y="192"
   style="font-size:12px;font-weight:normal;fill:#2b2828;font-family:Arial"
   id="text9583">5</text>

  </g>
      <g
         transform="matrix(0.774557,0,0,0.77345,360.23,341.62551)"
         id="g9585">
   <text
   x="400"
   y="192"
   style="font-size:12px;font-weight:normal;fill:#2b2828;font-family:Arial"
   id="text9587">2</text>

  </g>
      <g
         transform="matrix(0.774557,0,0,0.77345,388.932,265.52551)"
         id="g9589">
   <text
   x="400"
   y="194"
   style="font-size:12px;font-weight:normal;fill:#2b2828;font-family:Arial"
   id="text9591">*</text>

  </g>
      <g
         transform="matrix(0.774557,0,0,0.77345,388.932,291.22141)"
         id="g9593">
   <text
   x="400"
   y="192"
   style="font-size:12px;font-weight:normal;fill:#2b2828;font-family:Arial"
   id="text9595">9</text>

  </g>
      <g
         transform="matrix(0.774557,0,0,0.77345,388.932,315.92926)"
         id="g9597">
   <text
   x="400"
   y="192"
   style="font-size:12px;font-weight:normal;fill:#2b2828;font-family:Arial"
   id="text9599">6</text>

  </g>
      <g
         transform="matrix(0.774557,0,0,0.77345,388.932,341.62551)"
         id="g9601">
   <text
   x="400"
   y="192"
   style="font-size:12px;font-weight:normal;fill:#2b2828;font-family:Arial"
   id="text9603">3</text>

  </g>
      <path
         d="M 640.5,530.43361 C 639.5,530.43361 637.5,529.43361 637.5,528.43361 L 637.5,509.43361 C 637.5,508.43361 639.5,507.43361 640.5,507.43361 L 689.5,507.43361 C 691.5,507.43361 692.5,508.43361 692.5,509.43361 L 692.5,528.43361 C 692.5,529.43361 691.5,530.43361 689.5,530.43361 L 640.5,530.43361 z "
         style="fill:#9faaca;stroke:#202326;stroke-width:0"
         id="path9605" />
      <g
         transform="matrix(0.774557,0,0,0.77345,329.549,367.32141)"
         id="g9607">
   <text
   x="400"
   y="192"
   style="font-size:12px;font-weight:normal;fill:#2b2828;font-family:Arial"
   id="text9609">0</text>

  </g>
      <g
         transform="matrix(0.774557,0,0,0.77345,418.624,264.53711)"
         id="g9611">
   <text
   x="400"
   y="192"
   style="font-size:12px;font-weight:normal;fill:#2b2828;font-family:Arial"
   id="text9613">-</text>

  </g>
      <g
         transform="matrix(0.774557,0,0,0.77345,419.614,309.99958)"
         id="g9615">
   <text
   x="400"
   y="194"
   style="font-size:12px;font-weight:normal;fill:#2b2828;font-family:Arial"
   id="text9617">+</text>

  </g>
      <g
         transform="matrix(0.774557,0,0,0.77345,242.452,226.98111)"
         id="g9619">
   <text
   x="400"
   y="192"
   style="font-size:9px;font-weight:normal;fill:#2b2828;font-family:Arial"
   id="text9621">Scroll</text>

  </g>
      <g
         transform="matrix(0.774557,0,0,0.77345,242.452,234.88761)"
         id="g9623">
   <text
   x="400"
   y="192"
   style="font-size:9px;font-weight:normal;fill:#2b2828;font-family:Arial"
   id="text9625">Lock</text>

  </g>
      <g
         transform="matrix(0.774557,0,0,0.77345,211.771,222.03951)"
         id="g9627">
   <text
   x="400"
   y="192"
   style="font-size:9px;font-weight:normal;fill:#2b2828;font-family:Arial"
   id="text9629">Print</text>

  </g>
      <g
         transform="matrix(0.774557,0,0,0.77345,211.771,229.94591)"
         id="g9631">
   <text
   x="400"
   y="192"
   style="font-size:9px;font-weight:normal;fill:#2b2828;font-family:Arial"
   id="text9633">Scrn</text>

  </g>
      <g
         transform="matrix(0.774557,0,0,0.77345,211.771,237.85241)"
         id="g9635">
   <text
   x="400"
   y="192"
   style="font-size:9px;font-weight:normal;fill:#2b2828;font-family:Arial"
   id="text9637">SysRq</text>

  </g>
      <path
         d="M 518.5,380.43361 L 544.5,380.43361"
         style="fill:none;stroke:#2b2828;stroke-width:0"
         id="path9639" />
      <g
         transform="matrix(0.774557,0,0,0.77345,271.154,223.02791)"
         id="g9641">
   <text
   x="400"
   y="192"
   style="font-size:9px;font-weight:normal;fill:#2b2828;font-family:Arial"
   id="text9643">Pause</text>

  </g>
      <g
         transform="matrix(0.774557,0,0,0.77345,272.144,236.86441)"
         id="g9645">
   <text
   x="400"
   y="192"
   style="font-size:9px;font-weight:normal;fill:#2b2828;font-family:Arial"
   id="text9647">Break</text>

  </g>
      <path
         d="M 578.5,379.43361 L 603.5,379.43361"
         style="fill:none;stroke:#2b2828;stroke-width:0"
         id="path9649" />
      <g
         transform="matrix(0.774557,0,0,0.77345,-195.997,231.92271)"
         id="g9651">
   <text
   x="400"
   y="192"
   style="font-size:13px;font-weight:normal;fill:#2b2828;font-family:Arial"
   id="text9653">F1</text>

  </g>
      <g
         transform="matrix(0.774557,0,0,0.77345,-167.294,231.92271)"
         id="g9655">
   <text
   x="400"
   y="192"
   style="font-size:13px;font-weight:normal;fill:#2b2828;font-family:Arial"
   id="text9657">F2</text>

  </g>
      <g
         transform="matrix(0.774557,0,0,0.77345,-137.603,231.92271)"
         id="g9659">
   <text
   x="400"
   y="192"
   style="font-size:13px;font-weight:normal;fill:#2b2828;font-family:Arial"
   id="text9661">F3</text>

  </g>
      <g
         transform="matrix(0.774557,0,0,0.77345,-107.911,231.92271)"
         id="g9663">
   <text
   x="400"
   y="192"
   style="font-size:13px;font-weight:normal;fill:#2b2828;font-family:Arial"
   id="text9665">F4</text>

  </g>
      <g
         transform="matrix(0.774557,0,0,0.77345,-63.3731,231.92271)"
         id="g9667">
   <text
   x="400"
   y="192"
   style="font-size:13px;font-weight:normal;fill:#2b2828;font-family:Arial"
   id="text9669">F5</text>

  </g>
      <g
         transform="matrix(0.774557,0,0,0.77345,-33.6812,231.92271)"
         id="g9671">
   <text
   x="400"
   y="192"
   style="font-size:13px;font-weight:normal;fill:#2b2828;font-family:Arial"
   id="text9673">F6</text>

  </g>
      <g
         transform="matrix(0.774557,0,0,0.77345,-3.98941,231.92271)"
         id="g9675">
   <text
   x="400"
   y="192"
   style="font-size:13px;font-weight:normal;fill:#2b2828;font-family:Arial"
   id="text9677">F7</text>

  </g>
      <g
         transform="matrix(0.774557,0,0,0.77345,25.7024,231.92271)"
         id="g9679">
   <text
   x="400"
   y="192"
   style="font-size:13px;font-weight:normal;fill:#2b2828;font-family:Arial"
   id="text9681">F8</text>

  </g>
      <g
         transform="matrix(0.774557,0,0,0.77345,69.2503,231.92271)"
         id="g9683">
   <text
   x="400"
   y="192"
   style="font-size:13px;font-weight:normal;fill:#2b2828;font-family:Arial"
   id="text9685">F9</text>

  </g>
      <g
         transform="matrix(0.774557,0,0,0.77345,95.9728,231.92271)"
         id="g9687">
   <text
   x="400"
   y="192"
   style="font-size:13px;font-weight:normal;fill:#2b2828;font-family:Arial"
   id="text9689">F10</text>

  </g>
      <g
         transform="matrix(0.774557,0,0,0.77345,126.654,231.92271)"
         id="g9691">
   <text
   x="400"
   y="192"
   style="font-size:13px;font-weight:normal;fill:#2b2828;font-family:Arial"
   id="text9693">F11</text>

  </g>
      <g
         transform="matrix(0.774557,0,0,0.77345,155.356,231.92271)"
         id="g9695">
   <text
   x="400"
   y="192"
   style="font-size:13px;font-weight:normal;fill:#2b2828;font-family:Arial"
   id="text9697">F12</text>

  </g>
      <g
         transform="matrix(0.774557,0,0,0.77345,-256.37,230.93431)"
         id="g9699">
   <text
   x="400"
   y="192"
   style="font-size:9px;font-weight:normal;fill:#2b2828;font-family:Arial"
   id="text9701">Esc</text>

  </g>
      <g
         transform="matrix(0.774557,0,0,0.77345,243.442,271.45521)"
         id="g9703">
   <text
   x="400"
   y="192"
   style="font-size:9px;font-weight:normal;fill:#2b2828;font-family:Arial"
   id="text9705">Home</text>

  </g>
      <g
         transform="matrix(0.774557,0,0,0.77345,247.401,297.15141)"
         id="g9707">
   <text
   x="400"
   y="192"
   style="font-size:9px;font-weight:normal;fill:#2b2828;font-family:Arial"
   id="text9709">End</text>

  </g>
      <g
         transform="matrix(0.774557,0,0,0.77345,274.124,293.19821)"
         id="g9711">
   <text
   x="400"
   y="192"
   style="font-size:9px;font-weight:normal;fill:#2b2828;font-family:Arial"
   id="text9713">Page</text>

  </g>
      <g
         transform="matrix(0.774557,0,0,0.77345,274.124,301.10469)"
         id="g9715">
   <text
   x="400"
   y="192"
   style="font-size:9px;font-weight:normal;fill:#2b2828;font-family:Arial"
   id="text9717">Down</text>

  </g>
      <g
         transform="matrix(0.774557,0,0,0.77345,275.113,266.51351)"
         id="g9719">
   <text
   x="400"
   y="192"
   style="font-size:9px;font-weight:normal;fill:#2b2828;font-family:Arial"
   id="text9721">Page</text>

  </g>
      <g
         transform="matrix(0.774557,0,0,0.77345,275.113,274.42041)"
         id="g9723">
   <text
   x="400"
   y="192"
   style="font-size:9px;font-weight:normal;fill:#2b2828;font-family:Arial"
   id="text9725">Up</text>

  </g>
      <g
         transform="matrix(0.774557,0,0,0.77345,214.74,271.45521)"
         id="g9727">
   <text
   x="400"
   y="192"
   style="font-size:9px;font-weight:normal;fill:#2b2828;font-family:Arial"
   id="text9729">Insert</text>

  </g>
      <g
         transform="matrix(0.774557,0,0,0.77345,213.75,297.15141)"
         id="g9731">
   <text
   x="400"
   y="192"
   style="font-size:9px;font-weight:normal;fill:#2b2828;font-family:Arial"
   id="text9733">Delete</text>

  </g>
      <g
         transform="matrix(0.774557,0,0,0.77345,421.593,360.40331)"
         id="g9735">
   <text
   x="400"
   y="192"
   style="font-size:9px;font-weight:normal;fill:#2b2828;font-family:Arial"
   id="text9737">Enter</text>

  </g>
      <g
         transform="matrix(0.774557,0,0,0.77345,-230.637,279.36171)"
         id="g9739">
   <text
   x="400"
   y="192"
   style="font-size:12px;font-weight:normal;fill:#2b2828;font-family:Arial"
   id="text9741">1</text>

  </g>
      <g
         transform="matrix(0.774557,0,0,0.77345,-201.935,279.36171)"
         id="g9743">
   <text
   x="400"
   y="192"
   style="font-size:12px;font-weight:normal;fill:#2b2828;font-family:Arial"
   id="text9745">2</text>

  </g>
      <g
         transform="matrix(0.774557,0,0,0.77345,-172.243,279.36171)"
         id="g9747">
   <text
   x="400"
   y="192"
   style="font-size:12px;font-weight:normal;fill:#2b2828;font-family:Arial"
   id="text9749">3</text>

  </g>
      <g
         transform="matrix(0.774557,0,0,0.77345,-142.551,279.36171)"
         id="g9751">
   <text
   x="400"
   y="192"
   style="font-size:12px;font-weight:normal;fill:#2b2828;font-family:Arial"
   id="text9753">4</text>

  </g>
      <g
         transform="matrix(0.774557,0,0,0.77345,-111.87,279.36171)"
         id="g9755">
   <text
   x="400"
   y="192"
   style="font-size:12px;font-weight:normal;fill:#2b2828;font-family:Arial"
   id="text9757">5</text>

  </g>
      <g
         transform="matrix(0.774557,0,0,0.77345,-82.1778,279.36171)"
         id="g9759">
   <text
   x="400"
   y="192"
   style="font-size:12px;font-weight:normal;fill:#2b2828;font-family:Arial"
   id="text9761">6</text>

  </g>
      <g
         transform="matrix(0.774557,0,0,0.77345,-52.486,279.36171)"
         id="g9763">
   <text
   x="400"
   y="192"
   style="font-size:12px;font-weight:normal;fill:#2b2828;font-family:Arial"
   id="text9765">7</text>

  </g>
      <g
         transform="matrix(0.774557,0,0,0.77345,-23.7841,279.36171)"
         id="g9767">
   <text
   x="400"
   y="192"
   style="font-size:12px;font-weight:normal;fill:#2b2828;font-family:Arial"
   id="text9769">8</text>

  </g>
      <g
         transform="matrix(0.774557,0,0,0.77345,5.90774,279.36171)"
         id="g9771">
   <text
   x="400"
   y="192"
   style="font-size:12px;font-weight:normal;fill:#2b2828;font-family:Arial"
   id="text9773">9</text>

  </g>
      <g
         transform="matrix(0.774557,0,0,0.77345,36.5895,279.36171)"
         id="g9775">
   <text
   x="400"
   y="192"
   style="font-size:12px;font-weight:normal;fill:#2b2828;font-family:Arial"
   id="text9777">0</text>

  </g>
      <path
         d="M 481.5,416.43361 L 470.5,416.43361"
         style="fill:none;stroke:#2b2828;stroke-width:0"
         id="path9779" />
      <path
         d="M 472.5,418.43361 L 468.5,416.43361 L 472.5,414.43361 L 472.5,418.43361 L 470.5,416.43361 L 472.5,418.43361 z "
         style="fill:#2b2828"
         id="path9781" />
      <path
         d="M 412.5,505.43361 C 411.5,505.43361 410.5,504.43361 410.5,502.43361 L 410.5,485.43361 C 410.5,484.43361 411.5,482.43361 412.5,482.43361 L 485.5,482.43361 C 487.5,482.43361 488.5,484.43361 488.5,485.43361 L 488.5,502.43361 C 488.5,504.43361 487.5,505.43361 485.5,505.43361 L 412.5,505.43361 z "
         style="fill:#97c5d5;stroke:#202326;stroke-width:0"
         id="path9783" />
      <path
         d="M 448.5,457.43361 L 431.5,457.43361 C 429.5,457.43361 428.5,458.43361 428.5,459.43361 L 428.5,478.43361 C 428.5,479.43361 429.5,480.43361 431.5,480.43361 L 485.5,480.43361 C 487.5,480.43361 488.5,479.43361 488.5,478.43361 L 488.5,434.43361 C 488.5,432.43361 487.5,431.43361 485.5,431.43361 L 454.5,431.43361 C 452.5,431.43361 451.5,432.43361 451.5,434.43361 L 451.5,454.43361 C 451.5,456.43361 451.5,457.43361 448.5,457.43361 L 448.5,457.43361 z "
         style="fill:#f1efbe;stroke:#202326;stroke-width:0"
         id="path9785" />
      <path
         d="M 469.5,439.43361 L 469.5,450.43361 L 459.5,450.43361"
         style="fill:none;stroke:#2b2828;stroke-width:0"
         id="path9787" />
      <path
         d="M 460.5,452.43361 L 457.5,450.43361 L 460.5,448.43361 L 460.5,452.43361 L 459.5,450.43361 L 460.5,452.43361 z "
         style="fill:#2b2828"
         id="path9789" />
      <path
         d="M 452.5,507.43361 L 485.5,507.43361 C 487.5,507.43361 488.5,508.43361 488.5,510.43361 L 488.5,528.43361 C 488.5,530.43361 487.5,531.43361 485.5,531.43361 L 452.5,531.43361 C 450.5,531.43361 449.5,530.43361 449.5,528.43361 L 449.5,510.43361 C 449.5,508.43361 450.5,507.43361 452.5,507.43361 z "
         style="fill:#97c5d5;stroke:#202326;stroke-width:0"
         id="path9791" />
      <path
         d="M 49.5,505.43361 C 48.5,505.43361 46.5,504.43361 46.5,502.43361 C 46.5,497.43361 46.5,491.43361 46.5,485.43361 C 46.5,484.43361 48.5,482.43361 49.5,482.43361 C 64.5,482.43361 90.5,482.43361 106.5,482.43361 C 107.5,482.43361 108.5,484.43361 108.5,485.43361 C 108.5,491.43361 108.5,497.43361 108.5,502.43361 C 108.5,504.43361 107.5,505.43361 106.5,505.43361 C 90.5,505.43361 64.5,505.43361 49.5,505.43361 z "
         style="fill:#97c5d5;stroke:#202326;stroke-width:0"
         id="path9793" />
      <path
         d="M 49.5,507.43361 L 79.5,507.43361 C 80.5,507.43361 81.5,508.43361 81.5,510.43361 L 81.5,528.43361 C 81.5,530.43361 80.5,531.43361 79.5,531.43361 L 49.5,531.43361 C 47.5,531.43361 46.5,530.43361 46.5,528.43361 L 46.5,510.43361 C 46.5,508.43361 47.5,507.43361 49.5,507.43361 z "
         style="fill:#97c5d5;stroke:#202326;stroke-width:0"
         id="path9795" />
      <path
         d="M 89.5,507.43361 L 108.5,507.43361 C 110.5,507.43361 111.5,508.43361 111.5,510.43361 L 111.5,528.43361 C 111.5,529.43361 110.5,531.43361 108.5,531.43361 L 89.5,531.43361 C 88.5,531.43361 86.5,529.43361 86.5,528.43361 L 86.5,510.43361 C 86.5,508.43361 88.5,507.43361 89.5,507.43361 z "
         style="fill:#e8a8a5;stroke:#202326;stroke-width:0"
         id="path9797" />
      <path
         d="M 118.5,507.43361 L 143.5,507.43361 C 144.5,507.43361 145.5,508.43361 145.5,510.43361 L 145.5,528.43361 C 145.5,529.43361 144.5,531.43361 143.5,531.43361 L 118.5,531.43361 C 117.5,531.43361 116.5,529.43361 116.5,528.43361 L 116.5,510.43361 C 116.5,508.43361 117.5,507.43361 118.5,507.43361 z "
         style="fill:#97c5d5;stroke:#202326;stroke-width:0"
         id="path9799" />
      <g
         transform="matrix(0.774557,0,0,0.77345,153.377,374.23951)"
         id="g9801">
   <text
   x="400"
   y="192"
   style="font-size:9px;font-weight:normal;fill:#2b2828;font-family:Arial"
   id="text9803">Ctrl</text>

  </g>
      <g
         transform="matrix(0.774557,0,0,0.77345,-250.432,374.23951)"
         id="g9805">
   <text
   x="400"
   y="192"
   style="font-size:9px;font-weight:normal;fill:#2b2828;font-family:Arial"
   id="text9807">Ctrl</text>

  </g>
      <g
         transform="matrix(0.774557,0,0,0.77345,-183.13,373.25111)"
         id="g9809">
   <text
   x="400"
   y="192"
   style="font-size:9px;font-weight:normal;fill:#2b2828;font-family:Arial"
   id="text9811">Alt</text>

  </g>
      <g
         transform="matrix(0.774557,0,0,0.77345,5.90774,264.53711)"
         id="g9813">
   <text
   x="400"
   y="194"
   style="font-size:12px;font-weight:normal;fill:#2b2828;font-family:Arial"
   id="text9815">(</text>

  </g>
      <g
         transform="matrix(0.774557,0,0,0.77345,36.5895,264.53711)"
         id="g9817">
   <text
   x="400"
   y="194"
   style="font-size:12px;font-weight:normal;fill:#2b2828;font-family:Arial"
   id="text9819">)</text>

  </g>
      <g
         transform="matrix(0.774557,0,0,0.77345,-22.7942,264.53711)"
         id="g9821">
   <text
   x="400"
   y="194"
   style="font-size:12px;font-weight:normal;fill:#2b2828;font-family:Arial"
   id="text9823">*</text>

  </g>
      <g
         transform="matrix(0.774557,0,0,0.77345,-53.4759,265.52551)"
         id="g9825">
   <text
   x="400"
   y="192"
   style="font-size:12px;font-weight:normal;fill:#2b2828;font-family:Arial"
   id="text9827">&amp;</text>

  </g>
      <g
         transform="matrix(0.774557,0,0,0.77345,-82.1778,265.52551)"
         id="g9829">
   <text
   x="400"
   y="192"
   style="font-size:12px;font-weight:normal;fill:#2b2828;font-family:Arial"
   id="text9831">^</text>

  </g>
      <g
         transform="matrix(0.774557,0,0,0.77345,-112.86,265.52551)"
         id="g9833">
   <text
   x="400"
   y="192"
   style="font-size:12px;font-weight:normal;fill:#2b2828;font-family:Arial"
   id="text9835">%</text>

  </g>
      <g
         transform="matrix(0.774557,0,0,0.77345,-142.551,265.52551)"
         id="g9837">
   <text
   x="400"
   y="192"
   style="font-size:12px;font-weight:normal;fill:#2b2828;font-family:Arial"
   id="text9839">$</text>

  </g>
      <g
         transform="matrix(0.774557,0,0,0.77345,-172.243,265.52551)"
         id="g9841">
   <text
   x="400"
   y="192"
   style="font-size:12px;font-weight:normal;fill:#2b2828;font-family:Arial"
   id="text9843">#</text>

  </g>
      <g
         transform="matrix(0.774557,0,0,0.77345,-202.925,265.52551)"
         id="g9845">
   <text
   x="400"
   y="192"
   style="font-size:12px;font-weight:normal;fill:#2b2828;font-family:Arial"
   id="text9847">@</text>

  </g>
      <g
         transform="matrix(0.774557,0,0,0.77345,-230.637,265.52551)"
         id="g9849">
   <text
   x="400"
   y="192"
   style="font-size:12px;font-weight:normal;fill:#2b2828;font-family:Arial"
   id="text9851">!</text>

  </g>
      <g
         transform="matrix(0.774557,0,0,0.77345,-239.545,348.54361)"
         id="g9853">
   <text
   x="400"
   y="192"
   style="font-size:9px;font-weight:normal;fill:#2b2828;font-family:Arial"
   id="text9855">Shift</text>

  </g>
      <path
         d="M 56.5,487.43361 L 52.5,491.43361 L 54.5,491.43361 L 54.5,499.43361 L 59.5,499.43361 L 59.5,491.43361 L 61.5,491.43361 L 56.5,487.43361 z "
         style="fill:none;stroke:#2b2828;stroke-width:0"
         id="path9857" />
      <g
         transform="matrix(0.774557,0,0,0.77345,132.592,348.54361)"
         id="g9859">
   <text
   x="400"
   y="192"
   style="font-size:9px;font-weight:normal;fill:#2b2828;font-family:Arial"
   id="text9861">Shift</text>

  </g>
      <path
         d="M 419.5,487.43361 L 415.5,491.43361 L 417.5,491.43361 L 417.5,499.43361 L 421.5,499.43361 L 421.5,491.43361 L 423.5,491.43361 L 419.5,487.43361 z "
         style="fill:none;stroke:#2b2828;stroke-width:0"
         id="path9863" />
      <g
         transform="matrix(0.774557,0,0,0.77345,-260.329,280.35011)"
         id="g9865">
   <text
   x="400"
   y="192"
   style="font-size:12px;font-weight:normal;fill:#2b2828;font-family:Arial"
   id="text9867">`</text>

  </g>
      <g
         transform="matrix(0.774557,0,0,0.77345,-261.319,265.52551)"
         id="g9869">
   <text
   x="400"
   y="192"
   style="font-size:12px;font-weight:normal;fill:#2b2828;font-family:Arial"
   id="text9871">~</text>

  </g>
      <g
         transform="matrix(0.774557,0,0,0.77345,-260.329,292.20981)"
         id="g9873">
   <text
   x="400"
   y="192"
   style="font-size:9px;font-weight:normal;fill:#2b2828;font-family:Arial"
   id="text9875">Tab</text>

  </g>
      <g
         transform="matrix(0.774557,0,0,0.77345,-245.483,318.89447)"
         id="g9877">
   <text
   x="400"
   y="192"
   style="font-size:9px;font-weight:normal;fill:#2b2828;font-family:Arial"
   id="text9879">Caps</text>

  </g>
      <g
         transform="matrix(0.774557,0,0,0.77345,-245.483,326.80091)"
         id="g9881">
   <text
   x="400"
   y="192"
   style="font-size:9px;font-weight:normal;fill:#2b2828;font-family:Arial"
   id="text9883">Lock</text>

  </g>
      <g
         transform="matrix(0.774557,0,0,0.77345,65.2914,279.36171)"
         id="g9885">
   <text
   x="400"
   y="192"
   style="font-size:12px;font-weight:normal;fill:#2b2828;font-family:Arial"
   id="text9887">-</text>

  </g>
      <g
         transform="matrix(0.774557,0,0,0.77345,65.2914,264.53711)"
         id="g9889">
   <text
   x="400"
   y="192"
   style="font-size:12px;font-weight:normal;fill:#2b2828;font-family:Arial"
   id="text9891">_</text>

  </g>
      <g
         transform="matrix(0.774557,0,0,0.77345,94.9829,279.36171)"
         id="g9893">
   <text
   x="400"
   y="192"
   style="font-size:12px;font-weight:normal;fill:#2b2828;font-family:Arial"
   id="text9895">=</text>

  </g>
      <g
         transform="matrix(0.774557,0,0,0.77345,94.9829,264.53711)"
         id="g9897">
   <text
   x="400"
   y="192"
   style="font-size:12px;font-weight:normal;fill:#2b2828;font-family:Arial"
   id="text9899">+</text>

  </g>
      <g
         transform="matrix(0.774557,0,0,0.77345,125.665,279.36171)"
         id="g9901">
   <text
   x="400"
   y="192"
   style="font-size:12px;font-weight:normal;fill:#2b2828;font-family:Arial"
   id="text9903">\</text>

  </g>
      <g
         transform="matrix(0.774557,0,0,0.77345,125.665,264.53711)"
         id="g9905">
   <text
   x="400"
   y="194"
   style="font-size:12px;font-weight:normal;fill:#2b2828;font-family:Arial"
   id="text9907">|</text>

  </g>
      <g
         transform="matrix(0.774557,0,0,0.77345,85.0861,304.06953)"
         id="g9909">
   <text
   x="400"
   y="192"
   style="font-size:12px;font-weight:normal;fill:#2b2828;font-family:Arial"
   id="text9911">[</text>

  </g>
      <g
         transform="matrix(0.774557,0,0,0.77345,84.0962,291.22141)"
         id="g9913">
   <text
   x="400"
   y="192"
   style="font-size:12px;font-weight:normal;fill:#2b2828;font-family:Arial"
   id="text9915">{</text>

  </g>
      <g
         transform="matrix(0.774557,0,0,0.77345,113.788,304.06953)"
         id="g9917">
   <text
   x="400"
   y="192"
   style="font-size:12px;font-weight:normal;fill:#2b2828;font-family:Arial"
   id="text9919">]</text>

  </g>
      <g
         transform="matrix(0.774557,0,0,0.77345,113.788,291.22141)"
         id="g9921">
   <text
   x="400"
   y="192"
   style="font-size:12px;font-weight:normal;fill:#2b2828;font-family:Arial"
   id="text9923">}</text>

  </g>
      <g
         transform="matrix(0.774557,0,0,0.77345,62.3224,328.77741)"
         id="g9925">
   <text
   x="400"
   y="192"
   style="font-size:12px;font-weight:normal;fill:#2b2828;font-family:Arial"
   id="text9927">;</text>

  </g>
      <g
         transform="matrix(0.774557,0,0,0.77345,62.3224,315.92926)"
         id="g9929">
   <text
   x="400"
   y="192"
   style="font-size:12px;font-weight:normal;fill:#2b2828;font-family:Arial"
   id="text9931">:</text>

  </g>
      <g
         transform="matrix(0.774557,0,0,0.77345,92.0139,329.76581)"
         id="g9933">
   <text
   x="400"
   y="192"
   style="font-size:12px;font-weight:normal;fill:#2b2828;font-family:Arial"
   id="text9935">'</text>

  </g>
      <g
         transform="matrix(0.774557,0,0,0.77345,91.024,316.91766)"
         id="g9937">
   <text
   x="400"
   y="192"
   style="font-size:12px;font-weight:normal;fill:#2b2828;font-family:Arial"
   id="text9939">&quot;</text>

  </g>
      <g
         transform="matrix(0.774557,0,0,0.77345,73.2091,355.46171)"
         id="g9941">
   <text
   x="400"
   y="192"
   style="font-size:12px;font-weight:normal;fill:#2b2828;font-family:Arial"
   id="text9943">/</text>

  </g>
      <g
         transform="matrix(0.774557,0,0,0.77345,73.2091,342.61391)"
         id="g9945">
   <text
   x="400"
   y="192"
   style="font-size:12px;font-weight:normal;fill:#2b2828;font-family:Arial"
   id="text9947">?</text>

  </g>
      <g
         transform="matrix(0.774557,0,0,0.77345,44.5072,355.46171)"
         id="g9949">
   <text
   x="400"
   y="192"
   style="font-size:12px;font-weight:normal;fill:#2b2828;font-family:Arial"
   id="text9951">.</text>

  </g>
      <g
         transform="matrix(0.774557,0,0,0.77345,43.5173,342.61391)"
         id="g9953">
   <text
   x="400"
   y="192"
   style="font-size:12px;font-weight:normal;fill:#2b2828;font-family:Arial"
   id="text9955">&gt;</text>

  </g>
      <g
         transform="matrix(0.774557,0,0,0.77345,13.8255,355.46171)"
         id="g9957">
   <text
   x="400"
   y="192"
   style="font-size:12px;font-weight:normal;fill:#2b2828;font-family:Arial"
   id="text9959">,</text>

  </g>
      <g
         transform="matrix(0.774557,0,0,0.77345,12.8359,342.61391)"
         id="g9961">
   <text
   x="400"
   y="192"
   style="font-size:12px;font-weight:normal;fill:#2b2828;font-family:Arial"
   id="text9963">&lt;</text>

  </g>
      <path
         d="M 704.5,468.43361 L 714.5,468.43361"
         style="fill:none;stroke:#2b2828;stroke-width:0"
         id="path9965" />
      <path
         d="M 713.5,466.43361 L 716.5,468.43361 L 713.5,470.43361 L 713.5,466.43361 L 714.5,468.43361 L 713.5,466.43361 z "
         style="fill:#2b2828"
         id="path9967" />
      <path
         d="M 680.5,447.43361 L 680.5,437.43361"
         style="fill:none;stroke:#2b2828;stroke-width:0"
         id="path9969" />
      <path
         d="M 678.5,439.43361 L 680.5,435.43361 L 682.5,439.43361 L 678.5,439.43361 L 680.5,437.43361 L 678.5,439.43361 z "
         style="fill:#2b2828"
         id="path9971" />
      <path
         d="M 655.5,468.43361 L 645.5,468.43361"
         style="fill:none;stroke:#2b2828;stroke-width:0"
         id="path9973" />
      <path
         d="M 647.5,470.43361 L 643.5,468.43361 L 647.5,466.43361 L 647.5,470.43361 L 645.5,468.43361 L 647.5,470.43361 z "
         style="fill:#2b2828"
         id="path9975" />
      <path
         d="M 680.5,488.43361 L 680.5,498.43361"
         style="fill:none;stroke:#2b2828;stroke-width:0"
         id="path9977" />
      <path
         d="M 682.5,497.43361 L 680.5,500.43361 L 678.5,497.43361 L 682.5,497.43361 L 680.5,498.43361 L 682.5,497.43361 z "
         style="fill:#2b2828"
         id="path9979" />
      <g
         transform="matrix(0.774557,0,0,0.77345,329.549,353.48491)"
         id="g9981">
   <text
   x="400"
   y="192"
   style="font-size:9px;font-weight:normal;fill:#2b2828;font-family:Arial"
   id="text9983">End</text>

  </g>
      <g
         transform="matrix(0.774557,0,0,0.77345,329.549,304.06953)"
         id="g9985">
   <text
   x="400"
   y="192"
   style="font-size:9px;font-weight:normal;fill:#2b2828;font-family:Arial"
   id="text9987">Home</text>

  </g>
      <g
         transform="matrix(0.774557,0,0,0.77345,388.932,304.06953)"
         id="g9989">
   <text
   x="400"
   y="192"
   style="font-size:9px;font-weight:normal;fill:#2b2828;font-family:Arial"
   id="text9991">PgUp</text>

  </g>
      <g
         transform="matrix(0.774557,0,0,0.77345,389.922,353.48491)"
         id="g9993">
   <text
   x="400"
   y="192"
   style="font-size:9px;font-weight:normal;fill:#2b2828;font-family:Arial"
   id="text9995">PgDn</text>

  </g>
      <g
         transform="matrix(0.774557,0,0,0.77345,388.932,379.18111)"
         id="g9997">
   <text
   x="400"
   y="192"
   style="font-size:9px;font-weight:normal;fill:#2b2828;font-family:Arial"
   id="text9999">Del</text>

  </g>
      <g
         transform="matrix(0.774557,0,0,0.77345,389.922,366.33301)"
         id="g10001">
   <text
   x="400"
   y="192"
   style="font-size:9px;font-weight:normal;fill:#2b2828;font-family:Arial"
   id="text10003">.</text>

  </g>
      <g
         transform="matrix(0.774557,0,0,0.77345,330.538,379.18111)"
         id="g10005">
   <text
   x="400"
   y="192"
   style="font-size:9px;font-weight:normal;fill:#2b2828;font-family:Arial"
   id="text10007">Ins</text>

  </g>
      <path
         d="M 72.5,439.43361 L 72.5,436.43361 L 73.5,436.43361 L 73.5,439.43361 L 72.5,439.43361 z M 73.5,437.43361 L 75.5,436.43361 L 75.5,437.43361 L 84.5,437.43361 L 84.5,438.43361 L 75.5,438.43361 L 75.5,439.43361 L 73.5,437.43361 z "
         style="fill:#2b2828"
         id="path10009" />
      <path
         d="M 84.5,444.43361 L 84.5,448.43361 L 83.5,448.43361 L 83.5,444.43361 L 84.5,444.43361 z M 83.5,446.43361 L 81.5,448.43361 L 81.5,446.43361 L 72.5,446.43361 L 72.5,446.43361 L 81.5,446.43361 L 81.5,444.43361 L 83.5,446.43361 z "
         style="fill:#2b2828"
         id="path10011" />
      <path
         d="M 644.5,381.43361 L 651.5,381.43361 L 651.5,378.43361 L 644.5,378.43361 L 644.5,381.43361 z "
         style="fill:#2b2828"
         id="path10061" />
      <path
         d="M 644.5,381.43361 L 651.5,381.43361 L 651.5,378.43361 L 644.5,378.43361 L 644.5,381.43361 z "
         style="fill:none;stroke:#2b2828;stroke-width:0"
         id="path10063" />
      <g
         transform="matrix(0.774557,0,0,0.77345,343.405,229.94591)"
         id="g10065">
   <text
   x="400"
   y="192"
   style="font-size:8px;font-weight:normal;fill:#2b2828;font-family:Arial"
   id="text10067">Num</text>

  </g>
      <g
         transform="matrix(0.774557,0,0,0.77345,343.405,236.86441)"
         id="g10069">
   <text
   x="400"
   y="192"
   style="font-size:8px;font-weight:normal;fill:#2b2828;font-family:Arial"
   id="text10071">Lock</text>

  </g>
      <path
         d="M 685.5,381.43361 L 692.5,381.43361 L 692.5,378.43361 L 685.5,378.43361 L 685.5,381.43361 z "
         style="fill:#2b2828"
         id="path10073" />
      <path
         d="M 685.5,381.43361 L 692.5,381.43361 L 692.5,378.43361 L 685.5,378.43361 L 685.5,381.43361 z "
         style="fill:none;stroke:#2b2828;stroke-width:0"
         id="path10075" />
      <g
         transform="matrix(0.774557,0,0,0.77345,384.973,229.94591)"
         id="g10077">
   <text
   x="400"
   y="192"
   style="font-size:8px;font-weight:normal;fill:#2b2828;font-family:Arial"
   id="text10079">Caps</text>

  </g>
      <g
         transform="matrix(0.774557,0,0,0.77345,384.973,236.86441)"
         id="g10081">
   <text
   x="400"
   y="192"
   style="font-size:8px;font-weight:normal;fill:#2b2828;font-family:Arial"
   id="text10083">Lock</text>

  </g>
      <path
         d="M 726.5,381.43361 L 733.5,381.43361 L 733.5,378.43361 L 726.5,378.43361 L 726.5,381.43361 z "
         style="fill:#2b2828"
         id="path10085" />
      <path
         d="M 726.5,381.43361 L 733.5,381.43361 L 733.5,378.43361 L 726.5,378.43361 L 726.5,381.43361 z "
         style="fill:none;stroke:#2b2828;stroke-width:0"
         id="path10087" />
      <g
         transform="matrix(0.774557,0,0,0.77345,425.552,229.94591)"
         id="g10089">
   <text
   x="400"
   y="192"
   style="font-size:8px;font-weight:normal;fill:#2b2828;font-family:Arial"
   id="text10091">Scroll</text>

  </g>
      <g
         transform="matrix(0.774557,0,0,0.77345,425.552,236.86441)"
         id="g10093">
   <text
   x="400"
   y="192"
   style="font-size:8px;font-weight:normal;fill:#2b2828;font-family:Arial"
   id="text10095">Lock</text>

  </g>
      <path
         d="M 358.5,507.43361 L 382.5,507.43361 C 383.5,507.43361 384.5,508.43361 384.5,510.43361 L 384.5,528.43361 C 384.5,529.43361 383.5,531.43361 382.5,531.43361 L 358.5,531.43361 C 357.5,531.43361 356.5,529.43361 356.5,528.43361 L 356.5,510.43361 C 356.5,508.43361 357.5,507.43361 358.5,507.43361 z "
         style="fill:#97c5d5;stroke:#202326;stroke-width:0"
         id="path10097" />
      <g
         transform="matrix(0.774557,0,0,0.77345,52.197,373.25111)"
         id="g10099">
   <text
   x="400"
   y="192"
   style="font-size:9px;font-weight:normal;fill:#2b2828;font-family:Arial"
   id="text10101">Alt Gr</text>

  </g>
      <rect
         width="35.888142"
         height="34.00906"
         ry="9.3524914"
         x="513.55591"
         y="359.42908"
         style="fill:none;fill-opacity:1;stroke:#ff0000;stroke-width:3;stroke-linecap:square;stroke-linejoin:miter;stroke-miterlimit:4;stroke-dasharray:none;stroke-dashoffset:0;stroke-opacity:1"
         id="rect10970" />
    </g>
  </g>
</svg>
